<svg width="25" height="24" viewBox="0 0 25 24" fill="none" xmlns="http://www.w3.org/2000/svg">
<path d="M16.4741 8.41777L10.6832 13.8874L7.90394 11.0282C7.59583 10.711 7.08849 10.7038 6.7716 11.0119C6.4544 11.3203 6.44718 11.8273 6.75529 12.1445L10.0886 15.5663C10.3983 15.8779 10.8987 15.8886 11.2213 15.5902L17.5908 9.58242C17.7455 9.43653 17.8358 9.2351 17.8418 9.02268C17.8478 8.81027 17.769 8.60414 17.6228 8.44977C17.3128 8.12754 16.8017 8.11342 16.4741 8.41777Z" fill="#088B08"/>
<path d="M12.177 0C5.55867 0 0.177155 5.38151 0.177155 11.9998C0.177155 18.6185 5.55867 24 12.177 24C18.7956 24 24.1772 18.6185 24.1772 11.9998C24.1772 5.38151 18.7956 0 12.177 0ZM12.177 22.3936C6.4422 22.3936 1.78358 17.7268 1.78358 11.9998C1.78358 6.27289 6.4422 1.60642 12.177 1.60642C17.9174 1.60642 22.5707 6.25971 22.5707 11.9998C22.5707 17.74 17.9174 22.3936 12.177 22.3936Z" fill="#088B08"/>
</svg>
