<svg width="70" height="87" viewBox="0 0 70 87" fill="none" xmlns="http://www.w3.org/2000/svg">
<circle cx="35" cy="52.001" r="35" fill="#EAEAEA"/>
<g clip-path="url(#clip0)">
<path d="M66 0.715332H27.1768C17.2145 1.37923 17.2593 12.3898 17.2593 12.3898V65.0008H56.133V12.3898C56.133 12.3898 56.318 1.34547 66 0.715332Z" fill="#E8913A"/>
<path d="M64.447 0.000976562C54.7651 0.631116 54.5801 11.6754 54.5801 11.6754V64.2864H15.7064V11.6754C15.7064 11.6754 15.6615 0.664873 25.6182 0.000976562H64.447Z" fill="#FF5C00"/>
<path d="M43.6143 19.2148H20.8137V20.8915H43.6143V19.2148Z" fill="#FFDC94"/>
<path d="M32.2729 23.6313H20.8137V26.1181H32.2729V23.6313Z" fill="#FFDC94"/>
<path d="M32.2729 29.001H20.8137V31.4878H32.2729V29.001Z" fill="#FFDC94"/>
<path d="M32.2729 34.001H20.8137V36.4878H32.2729V34.001Z" fill="#FFDC94"/>
<path d="M32.2729 39.001H20.8137V41.4878H32.2729V39.001Z" fill="#FFDC94"/>
<path d="M32.2729 43.001H20.8137V45.4878H32.2729V43.001Z" fill="#FFDC94"/>
<path d="M32.2729 47.001H20.8137V49.4878H32.2729V47.001Z" fill="#FFDC94"/>
<path d="M32.2729 51.001H20.8137V53.4878H32.2729V51.001Z" fill="#FFDC94"/>
<path d="M47.5107 23.6313H35.6591V26.1181H47.5107V23.6313Z" fill="#FFDC94"/>
<path d="M47.5107 29.001H35.6591V31.4878H47.5107V29.001Z" fill="#FFDC94"/>
<path d="M47.5107 34.001H35.6591V36.4878H47.5107V34.001Z" fill="#FFDC94"/>
<path d="M47.5107 39.001H35.6591V41.4878H47.5107V39.001Z" fill="#FFDC94"/>
<path d="M47.5107 43.001H35.6591V45.4878H47.5107V43.001Z" fill="#FFDC94"/>
<path d="M47.5107 47.001H35.6591V49.4878H47.5107V47.001Z" fill="#FFDC94"/>
<path d="M47.5107 51.001H35.6591V53.4878H47.5107V51.001Z" fill="#FFDC94"/>
<path d="M32.5307 55.0254H20.8137V56.01H32.5307V55.0254Z" fill="#FFDC94"/>
<path d="M57.0356 14.2859C57.03 14.1959 56.4581 3.92236 65.0974 2.42578L57.0356 14.2859Z" fill="#FFC155"/>
</g>
<defs>
<clipPath id="clip0">
<rect width="51" height="65" fill="white" transform="translate(15 0.000976562)"/>
</clipPath>
</defs>
</svg>
