<svg width="70" height="95" viewBox="0 0 70 95" fill="none" xmlns="http://www.w3.org/2000/svg">
<circle cx="35" cy="60.001" r="35" fill="#EAEAEA"/>
<g clip-path="url(#clip0)">
<path d="M14.3758 89.902L13.5003 89.4034C13.2251 89.2538 13 88.8549 13 88.5557V24.0599C13 23.7358 13.2251 23.3618 13.5003 23.2122L53.6236 0.126349C53.8988 -0.023236 54.349 -0.023236 54.6242 0.126349L55.4997 0.624964C55.7749 0.774548 56 1.17344 56 1.47261V65.9435C56 66.2676 55.7749 66.6416 55.4997 66.7912L15.3764 89.902C15.1012 90.0516 14.651 90.0516 14.3758 89.902Z" fill="#FF5C00"/>
<path opacity="0.4" d="M55.975 1.39733C55.95 1.14802 55.7248 1.0483 55.4747 1.19788L15.3764 24.2838C15.2263 24.3585 15.1262 24.5081 15.0262 24.6577L13.1501 23.5857C13.2501 23.4361 13.3752 23.2865 13.5003 23.2117L53.6236 0.12586C53.8988 -0.0237242 54.349 -0.0237242 54.6242 0.12586L55.4997 0.624475C55.7498 0.77406 55.95 1.09816 55.975 1.39733Z" fill="white"/>
<path opacity="0.15" d="M15.2763 89.9262H15.2513C15.2263 89.9262 15.2263 89.9511 15.2013 89.9511H15.1763C15.1513 89.9511 15.1262 89.9761 15.0762 89.9761C14.8761 90.001 14.651 90.001 14.4759 89.9262C14.4258 89.9013 14.4008 89.9013 14.3758 89.8763L13.5003 89.3777C13.2251 89.2281 13 88.8292 13 88.5301V24.0592C13 23.9096 13.05 23.7351 13.1501 23.5605L15.0262 24.6326C14.9261 24.7822 14.8761 24.9567 14.8761 25.1312V89.6021C14.8761 89.7267 14.9011 89.8015 14.9511 89.8514C15.0012 89.9262 15.1012 89.9511 15.2263 89.9262C15.2263 89.9511 15.2513 89.9511 15.2763 89.9262Z" fill="black"/>
<path d="M43.4677 11.9928C43.4427 11.9678 43.4177 11.9678 43.3927 11.9429L42.5672 11.4692C42.3671 11.3446 42.0669 11.2199 41.5916 11.1202C41.4415 11.0952 41.3165 11.0454 41.2164 11.0205C41.0663 10.9706 40.9663 10.9207 40.8412 10.8709L40.8912 10.7961L39.9657 10.2476C39.8906 10.1977 39.8156 10.1728 39.7155 10.1479C39.3653 10.0731 38.84 10.2725 38.3147 10.1977C37.9895 10.1728 37.6393 10.0232 37.3642 9.62433C37.039 9.20051 36.8389 8.45259 36.5637 7.82932L36.8138 7.45536C36.7888 7.43043 36.7638 7.43043 36.7388 7.4055L35.8883 6.90688C35.7382 6.83209 35.5881 6.78223 35.413 6.78223C35.1629 6.78223 34.8627 6.85702 34.5125 7.0814C32.4613 8.25314 32.3863 11.0703 31.6358 12.9152C30.8854 14.7601 29.8598 15.3335 29.2845 16.1313C28.7091 16.929 28.6841 17.5024 27.4084 19.2476C26.1577 20.9928 26.0826 21.4166 26.0826 21.7407V24.3335L27.0081 24.882L43.8179 15.2088L43.4677 11.9928ZM28.0337 21.9651C27.8086 22.0897 27.6335 21.9152 27.6335 21.5911C27.6335 21.267 27.8086 20.8681 28.0337 20.7434C28.2589 20.6188 28.434 20.7933 28.434 21.1174C28.434 21.4664 28.2589 21.8404 28.0337 21.9651ZM35.413 14.7102C34.8627 15.0343 34.3874 14.8598 34.1123 14.3113C33.4619 14.436 32.9866 13.8127 32.9866 12.7407C32.9866 11.4692 33.662 10.0482 34.4875 9.57447C35.0378 9.25037 35.5131 9.42489 35.7883 9.97336C36.4386 9.84871 36.9139 10.472 36.9139 11.544C36.9139 12.8155 36.2635 14.2116 35.413 14.7102ZM41.0163 14.4858C40.7912 14.6105 40.6161 14.436 40.6161 14.1119C40.6161 13.7628 40.7912 13.3889 41.0163 13.2642C41.2414 13.1396 41.4165 13.3141 41.4165 13.6382C41.4165 13.9872 41.2414 14.3612 41.0163 14.4858Z" fill="#455A64"/>
<path opacity="0.5" d="M27.9587 22.4138L26.1577 21.3667C26.1076 21.5412 26.1076 21.6659 26.1076 21.7656V24.3584L27.0332 24.9069L27.9587 24.3584V22.4138Z" fill="#37474F"/>
<path opacity="0.5" d="M29.8098 19.1978L30.7353 17.0537L29.2595 16.1812C28.8342 16.7795 28.7091 17.2781 28.1088 18.2255L29.8098 19.1978Z" fill="#37474F"/>
<path opacity="0.5" d="M33.562 14.8846L33.687 14.2613C33.2618 14.0868 33.0116 13.5383 33.0116 12.7156C33.0116 11.6436 33.4869 10.4469 34.1623 9.82361L32.8616 9.07568C32.3112 10.3222 32.1111 11.8181 31.6609 12.94C31.5608 13.1893 31.4607 13.3887 31.3607 13.5882L33.562 14.8846Z" fill="#37474F"/>
<path d="M43.4677 11.9927C43.4427 11.9677 43.4177 11.9677 43.3927 11.9428C43.1925 11.8431 42.9174 11.7434 42.5422 11.6686C41.7917 11.4941 41.4916 11.2448 41.2164 11.0204C41.1163 10.9456 41.0163 10.8459 40.9162 10.796C40.8412 10.7461 40.7661 10.7212 40.6661 10.6963C40.0907 10.5716 39.0651 11.17 38.3397 10.2226L38.3147 10.1977C37.7894 9.4996 37.6143 7.95389 36.8389 7.50514C36.8138 7.48021 36.7888 7.48021 36.7638 7.45528C36.4386 7.30569 36.0384 7.33062 35.4631 7.65472C33.4119 8.82647 33.3368 11.6436 32.5864 13.4885C31.8359 15.3334 30.8103 15.9068 30.235 16.7046C29.6597 17.5024 29.6347 18.0758 28.3589 19.8209C27.1082 21.5661 27.0582 21.9899 27.0582 22.314V24.9068L43.8679 15.2337V12.6409C43.8429 12.4165 43.8179 12.1921 43.4677 11.9927ZM28.9593 22.4885C28.7341 22.6132 28.559 22.4387 28.559 22.1146C28.559 21.7905 28.7341 21.3916 28.9593 21.2669C29.1844 21.1423 29.3595 21.3168 29.3595 21.6409C29.3595 21.9899 29.1844 22.3639 28.9593 22.4885ZM35.413 14.7101C34.8627 15.0342 34.3874 14.8597 34.1123 14.3112C33.9872 14.037 33.9121 13.688 33.9121 13.2641C33.9121 11.9927 34.5875 10.5716 35.413 10.0979C35.5381 10.0231 35.6632 9.97328 35.7632 9.94835C36.4136 9.8237 36.8889 10.447 36.8889 11.519C36.9139 12.8154 36.2635 14.2115 35.413 14.7101ZM41.9418 15.0342C41.7167 15.1589 41.5416 14.9844 41.5416 14.6603C41.5416 14.3112 41.7167 13.9373 41.9418 13.8126C42.1669 13.688 42.3421 13.8625 42.3421 14.1866C42.3421 14.5356 42.1669 14.9096 41.9418 15.0342Z" fill="#37474F"/>
<path d="M36.9139 11.5439C36.9139 12.8154 36.2385 14.2364 35.413 14.7101C34.8627 15.0342 34.3874 14.8597 34.1123 14.3112C34.2373 14.2863 34.3374 14.2364 34.4875 14.1617C35.313 13.688 35.9884 12.2669 35.9884 10.9955C35.9884 10.5716 35.9133 10.2226 35.7882 9.94836C36.4386 9.82371 36.9139 10.447 36.9139 11.5439Z" fill="#263238"/>
<path d="M28.9593 22.4886C28.7342 22.6133 28.5591 22.4387 28.5591 22.1146C28.5591 21.7905 28.7342 21.3916 28.9593 21.267C29.1844 21.1423 29.3595 21.3168 29.3595 21.641C29.3595 21.99 29.1844 22.3639 28.9593 22.4886Z" fill="#263238"/>
<path d="M41.9418 15.034C41.7167 15.1587 41.5416 14.9841 41.5416 14.66C41.5416 14.3359 41.7167 13.9371 41.9418 13.8124C42.167 13.6877 42.3421 13.8623 42.3421 14.1864C42.3421 14.5354 42.167 14.9094 41.9418 15.034Z" fill="#263238"/>
<path d="M17.9779 30.3169L52.8982 10.2227C53.0733 10.123 53.3234 10.123 53.4985 10.2227L53.8237 10.4222C53.9988 10.5219 54.1239 10.7463 54.1239 10.9457V64.0233C54.1239 64.2227 53.9988 64.4471 53.8237 64.5468L18.9034 84.6161C18.7283 84.7158 18.4782 84.7158 18.3031 84.6161L17.9779 84.4166C17.8028 84.3169 17.6777 84.0925 17.6777 83.8931V30.8405C17.6777 30.641 17.8028 30.4166 17.9779 30.3169Z" fill="#F5F5F5"/>
<path d="M54.0989 10.846C54.0739 10.7214 53.9488 10.6964 53.8237 10.7712L18.9034 30.8405C18.8284 30.8903 18.7533 30.9651 18.7033 31.0648L17.7778 30.5164C17.8278 30.4166 17.9028 30.3419 17.9779 30.292L52.8982 10.2227C53.0733 10.123 53.3234 10.123 53.4985 10.2227L53.8487 10.4222C53.9738 10.497 54.0739 10.6715 54.0989 10.846Z" fill="#FAFAFA"/>
<path d="M18.8284 84.6662C18.8034 84.6911 18.7533 84.6911 18.7283 84.6911C18.7033 84.6911 18.6783 84.6911 18.6783 84.6911C18.6283 84.6911 18.5532 84.6911 18.5032 84.6911C18.4532 84.6911 18.4282 84.6662 18.4031 84.6662C18.3781 84.6662 18.3531 84.6412 18.3281 84.6412L18.0029 84.4418C17.8278 84.3421 17.7027 84.1177 17.7027 83.9182V30.8407C17.7027 30.7409 17.7277 30.6412 17.7778 30.5415L18.7033 31.09C18.6533 31.1897 18.6283 31.2894 18.6283 31.3891V84.4667C18.6033 84.6163 18.7033 84.6911 18.8284 84.6662Z" fill="#E0E0E0"/>
<path d="M46.2444 17.7517L45.3188 17.2032C45.0687 17.0537 44.7685 17.0537 44.3933 17.2282C43.3176 17.7019 42.8424 17.9262 42.267 18.1506C42.142 18.2005 42.0169 18.2503 41.8668 18.3251C41.6417 18.3999 41.2164 18.3501 41.3415 17.5772L42.7923 13.7129H42.7673L41.8418 13.1894C41.7918 13.1645 41.7417 13.1395 41.6917 13.1395C41.6667 13.1395 41.6167 13.1395 41.5916 13.1395C40.9913 13.1146 40.8412 9.32513 40.8162 9.20047L40.7662 9.17554L39.8656 8.652C39.7156 8.57721 39.5405 8.52734 39.3403 8.52734C39.0902 8.52734 38.79 8.60214 38.4898 8.77665C37.064 9.52457 35.6382 11.7185 35.288 13.688C35.0628 14.9345 33.8121 16.8542 33.0867 17.5523C32.3613 18.2753 32.3112 18.8487 32.3112 18.8487L31.7609 22.0149L31.5858 23.037C31.4608 23.8099 30.6603 24.5329 30.6603 24.5329L27.7336 26.7268C25.9075 28.2476 25.3822 29.7683 25.032 31.6631C25.032 31.6631 25.032 31.6631 25.032 31.688C25.032 31.7628 25.032 31.8127 25.057 31.8127H25.082L25.4573 31.5883L45.619 19.9955C45.694 19.9456 45.7941 19.821 45.7941 19.7212C45.9442 19.0481 46.2694 17.7517 46.2444 17.7517C46.2694 17.7517 46.2694 17.7517 46.2444 17.7517ZM40.441 11.8681C40.2158 13.0897 39.3403 14.4359 38.4648 14.8847C37.8645 15.2088 37.4142 15.0093 37.2641 14.4609C36.989 14.5357 36.7638 14.5107 36.6138 14.3861C36.3386 14.1617 38.8901 9.77388 39.1152 9.8736C39.2903 9.9484 39.4404 10.1478 39.4904 10.3971C40.2158 10.1728 40.6161 10.7711 40.441 11.8681Z" fill="#455A64"/>
<path opacity="0.5" d="M27.9587 28.8706L26.4829 28.0229C25.6324 29.1448 25.2822 30.3166 25.032 31.6878C25.032 31.6878 25.032 31.6878 25.032 31.7127C25.032 31.7875 25.032 31.8374 25.057 31.8374H25.082L26.2577 30.9149L27.9587 28.8706Z" fill="#37474F"/>
<path opacity="0.5" d="M31.4858 23.3859L33.562 24.5826L34.4875 19.1975L32.6114 18.1255C32.3363 18.5493 32.3113 18.8236 32.3113 18.8236L31.7609 22.0147L31.5858 23.0368C31.5608 23.1615 31.5358 23.2612 31.4858 23.3859Z" fill="#37474F"/>
<path opacity="0.5" d="M36.2886 11.0952C35.8133 11.893 35.4631 12.8154 35.313 13.6631C35.2129 14.1866 34.9378 14.8598 34.5876 15.483L36.3636 16.5052L37.2391 14.4858C36.989 14.5606 36.7638 14.5357 36.6138 14.3861C36.4637 14.2614 37.089 13.0647 37.7394 11.9179L36.2886 11.0952Z" fill="#37474F"/>
<path d="M46.2694 17.7518C46.0192 17.6022 45.694 17.6022 45.3188 17.7767C43.993 18.3501 43.5928 18.5496 42.7923 18.8737C42.5922 18.9485 42.167 18.8986 42.267 18.1756C42.267 18.1507 42.267 18.1507 42.267 18.1257L42.4421 17.1036L42.9424 14.3113C42.9424 14.3113 43.0675 13.8626 42.7673 13.713H42.7423C42.6923 13.6881 42.6172 13.6631 42.5172 13.6631C42.242 13.6631 41.9168 13.4637 41.6917 13.1396C41.4165 12.7656 41.2664 12.2172 41.3665 11.544C41.5666 10.3473 41.3415 9.52463 40.8162 9.20053C40.7912 9.20053 40.7912 9.1756 40.7662 9.1756C40.4159 9.00109 39.9657 9.02602 39.4154 9.30025C37.9895 10.0482 36.5637 12.2421 36.2135 14.2116C35.9884 15.4581 34.7376 17.3778 34.0122 18.0759C33.2868 18.7989 33.2368 19.3723 33.2368 19.3723L32.6614 22.5634L32.5114 23.5856C32.3863 24.3584 31.5858 25.0814 31.5858 25.0814L28.6591 27.2753C27.2833 28.4221 26.6329 29.6188 26.2577 30.9152C26.2577 30.9152 25.1571 31.7629 25.082 31.8376L25.4572 31.6133L45.669 20.0454C45.669 20.0454 45.8941 19.9208 45.9442 19.8958C45.9942 19.8709 46.8197 19.098 46.8197 19.098C46.7947 18.4249 46.6196 17.9512 46.2694 17.7518ZM40.441 11.8681C40.2158 13.0897 39.3403 14.436 38.4648 14.8847C37.8645 15.2088 37.4142 15.0094 37.2641 14.4609C37.2141 14.2116 37.1891 13.8875 37.2641 13.5136C37.4892 12.2919 38.3648 10.9457 39.2403 10.4969C39.3153 10.4471 39.4154 10.4221 39.4904 10.3972C40.2158 10.1728 40.6161 10.7712 40.441 11.8681Z" fill="#37474F"/>
<path d="M40.441 11.8683C40.2158 13.0899 39.3403 14.4361 38.4648 14.8849C37.8645 15.209 37.4142 15.0095 37.2641 14.461C37.3392 14.4361 37.4392 14.4112 37.5143 14.3613C38.3898 13.9126 39.2653 12.5414 39.4904 11.3447C39.5655 10.9707 39.5405 10.6466 39.4904 10.3973C40.2158 10.173 40.6161 10.7713 40.441 11.8683Z" fill="#263238"/>
<path d="M39.5905 10.4468C39.7656 10.4468 39.9157 10.5216 40.0157 10.6463C40.3659 11.1698 40.0407 12.4662 39.8907 12.89C39.6905 13.4635 38.3147 14.8346 37.9645 14.8346C37.6393 14.8097 37.3892 14.5105 37.3642 14.4358C37.3142 14.1864 37.3142 13.8623 37.3642 13.5382C37.5893 12.3416 38.4398 10.9953 39.3153 10.5466C39.3904 10.4967 39.4904 10.4718 39.5655 10.4468C39.5405 10.4468 39.5655 10.4468 39.5905 10.4468ZM39.5905 10.397C39.5655 10.397 39.5405 10.397 39.4904 10.397C39.4154 10.4219 39.3153 10.4468 39.2403 10.4967C38.3648 10.9454 37.4893 12.3166 37.2641 13.5133C37.1891 13.8873 37.2141 14.2114 37.2641 14.4607C37.2641 14.4607 37.5393 14.8596 37.9145 14.8845C38.3147 14.8845 39.6905 13.5133 39.8907 12.89C40.1408 12.3166 40.6161 10.397 39.5905 10.397Z" fill="#263238"/>
<path d="M25.1071 31.8378L45.694 20.0455C45.694 20.0455 45.9192 19.9209 45.9692 19.8959C46.0192 19.871 46.8447 19.0981 46.8447 19.0981L26.2577 30.9153C26.2577 30.9153 25.032 31.8627 25.1071 31.8378Z" fill="#263238"/>
<path d="M22.3554 40.0894V40.5631C22.3554 40.8124 22.5305 40.9121 22.7557 40.7875L49.9965 25.106C50.2216 24.9814 50.3967 24.6822 50.3967 24.408V23.9343C50.3967 23.685 50.2216 23.5853 49.9965 23.7099L22.7557 39.4163C22.5305 39.5409 22.3554 39.8401 22.3554 40.0894Z" fill="#E0E0E0"/>
<path d="M22.3554 42.9068V43.3805C22.3554 43.6298 22.5305 43.7295 22.7557 43.6048L49.9965 27.9234C50.2216 27.7988 50.3967 27.4996 50.3967 27.2254V26.7517C50.3967 26.5024 50.2216 26.4026 49.9965 26.5273L22.7557 42.2337C22.5305 42.3583 22.3554 42.6575 22.3554 42.9068Z" fill="#E0E0E0"/>
<path d="M22.3554 45.7237V46.1974C22.3554 46.4467 22.5305 46.5464 22.7557 46.4218L49.9965 30.7403C50.2216 30.6157 50.3967 30.3165 50.3967 30.0423V29.5686C50.3967 29.3193 50.2216 29.2195 49.9965 29.3442L22.7557 45.0256C22.5305 45.1503 22.3554 45.4744 22.3554 45.7237Z" fill="#E0E0E0"/>
<path d="M22.3554 51.9317V52.4054C22.3554 52.6547 22.5305 52.7544 22.7557 52.6298L49.9965 36.9483C50.2216 36.8237 50.3967 36.5245 50.3967 36.2503V35.7766C50.3967 35.5273 50.2216 35.4275 49.9965 35.5522L22.7557 51.2336C22.5305 51.3583 22.3554 51.6824 22.3554 51.9317Z" fill="#E0E0E0"/>
<path d="M22.3554 54.7491V55.2228C22.3554 55.4721 22.5305 55.5718 22.7557 55.4471L49.9965 39.7657C50.2216 39.6411 50.3967 39.3419 50.3967 39.0676V38.594C50.3967 38.3447 50.2216 38.2449 49.9965 38.3696L22.7557 54.051C22.5305 54.1757 22.3554 54.4998 22.3554 54.7491Z" fill="#E0E0E0"/>
<path d="M22.3554 57.5411V58.0148C22.3554 58.2641 22.5305 58.3638 22.7557 58.2391L49.9965 42.5577C50.2216 42.433 50.3967 42.1339 50.3967 41.8596V41.386C50.3967 41.1366 50.2216 41.0369 49.9965 41.1616L22.7557 56.8679C22.5305 56.9926 22.3554 57.2918 22.3554 57.5411Z" fill="#E0E0E0"/>
<path d="M22.3554 63.7735V64.2472C22.3554 64.4965 22.5305 64.5962 22.7557 64.4716L49.9965 48.7901C50.2216 48.6655 50.3967 48.3663 50.3967 48.0921V47.6184C50.3967 47.3691 50.2216 47.2693 49.9965 47.394L22.7557 63.0754C22.5305 63.2001 22.3554 63.4993 22.3554 63.7735Z" fill="#E0E0E0"/>
<path d="M22.3554 66.5909V67.0646C22.3554 67.3139 22.5305 67.4136 22.7557 67.289L49.9715 51.6075C50.1966 51.4829 50.3717 51.1837 50.3717 50.9094V50.4358C50.3717 50.1865 50.1966 50.0867 49.9715 50.2114L22.7557 65.8928C22.5305 66.0175 22.3554 66.3167 22.3554 66.5909Z" fill="#E0E0E0"/>
<path d="M22.3554 69.3829V69.8566C22.3554 70.1059 22.5305 70.2056 22.7557 70.0809L49.9965 54.3995C50.2216 54.2748 50.3967 53.9757 50.3967 53.7014V53.2277C50.3967 52.9784 50.2216 52.8787 49.9965 53.0034L22.7557 68.6848C22.5305 68.8095 22.3554 69.1336 22.3554 69.3829Z" fill="#E0E0E0"/>
<path d="M36.3636 69.7572L50.3717 61.7046V61.9539L36.3636 70.0315V69.7572Z" fill="#E0E0E0"/>
<path d="M39.6155 65.5691C40.1908 65.1702 40.8412 64.522 40.7411 63.7492C40.6661 63.2755 40.2909 63.101 39.8656 63.2755C39.0151 63.5996 38.4648 64.871 38.1646 65.6439C37.9145 66.317 37.5643 67.5885 38.5899 67.8129C39.7906 68.0622 40.7161 66.317 40.9663 65.4195C40.9913 65.2949 40.7912 65.2201 40.7411 65.3447C40.6411 65.5442 39.9407 66.9154 40.7161 66.7408C40.9913 66.691 41.1414 66.2422 41.2414 66.0428C41.4165 65.6439 41.5166 65.1203 41.7917 64.7713C41.7167 64.7464 41.6667 64.7214 41.5916 64.6716C41.5916 65.0206 41.5916 65.2699 41.8418 65.5442C41.8918 65.594 41.9668 65.619 42.0169 65.5691C42.4171 65.1951 42.4421 64.5968 42.8674 64.2727C42.8173 64.2478 42.7423 64.2228 42.6923 64.1979C42.6923 64.3226 42.6422 64.6467 42.6422 64.7962C42.6422 64.871 42.7423 64.9209 42.7923 64.896C42.9424 64.8461 42.9674 64.8212 43.0425 64.6716C42.9674 64.6467 42.9174 64.6217 42.8424 64.5968C43.0175 65.4694 43.7679 64.5968 44.018 64.2727C44.7685 63.2755 45.2938 62.2035 45.3188 60.932C45.3188 60.8323 45.1187 60.7824 45.1187 60.9071C45.0937 61.8794 44.6684 62.7769 44.3933 63.7242C44.0931 64.7215 43.8429 65.7436 43.6428 66.7658C43.6928 66.7907 43.7679 66.8156 43.8179 66.8406C43.8429 66.1176 44.0931 65.4195 44.3682 64.7464C44.5934 64.173 44.8435 63.5996 45.3188 63.1757C45.2688 63.1508 45.2187 63.1259 45.1437 63.1259C45.2688 63.6245 45.0436 64.173 44.7435 64.5719C44.6934 64.6467 44.8185 64.7713 44.8685 64.6965C45.1437 64.3475 45.594 64.2478 45.8941 63.8987C46.1943 63.5497 46.3944 63.101 46.6446 62.7021C46.5945 62.6771 46.5445 62.6522 46.5195 62.6273C46.4945 63.4749 47.2949 62.1536 47.395 62.0289C47.345 62.004 47.32 62.004 47.2699 61.9791C47.32 62.1536 47.395 62.2782 47.5951 62.2782C47.9703 62.2782 48.1204 61.7048 48.4206 61.655C48.4206 61.655 48.5457 61.7547 48.5957 61.7796C48.7708 61.8046 48.8959 61.7796 49.071 61.6799C49.3962 61.5054 49.6463 61.1564 49.8464 60.8323C49.8965 60.7575 49.7464 60.6578 49.6963 60.7325C49.4962 61.0566 48.8959 61.9043 48.4706 61.5054C48.4456 61.4805 48.3956 61.4555 48.3456 61.4805C48.2205 61.63 47.5451 62.4029 47.42 61.9791C47.395 61.9292 47.32 61.8794 47.2949 61.9292C47.1949 62.0539 47.1198 62.2035 47.0198 62.353C46.9698 62.4278 46.6696 62.9264 46.6946 62.6771C46.6946 62.6273 46.5945 62.5525 46.5695 62.6023C46.2944 63.0262 46.0942 63.5746 45.719 63.8987C45.4439 64.148 45.0686 64.2478 44.8185 64.5469C44.8685 64.5968 44.8935 64.6217 44.9436 64.6716C45.2938 64.2478 45.5439 63.6494 45.3938 63.101C45.3688 63.0262 45.2938 62.9763 45.2187 63.0511C44.7435 63.4749 44.4933 64.0733 44.2432 64.6716C43.968 65.3696 43.6928 66.0677 43.6928 66.8156C43.6928 66.8904 43.8429 66.9901 43.8679 66.8904C44.0931 65.7935 44.3432 64.6965 44.6934 63.5996C44.9686 62.727 45.3438 61.9043 45.3688 60.9819C45.2938 60.9819 45.2437 60.9569 45.1687 60.9569C45.1437 61.9541 44.8435 62.7769 44.2932 63.6245C44.1431 63.8489 43.993 64.0483 43.8429 64.2727C43.7679 64.3724 43.1425 65.1702 43.0675 64.6965C43.0675 64.6217 42.9174 64.5469 42.8674 64.6217C42.8173 64.6716 42.7423 64.7214 42.6923 64.7713C42.7423 64.7962 42.7923 64.8461 42.8424 64.871C42.8424 64.6716 42.8924 64.4721 42.8924 64.2727C42.8924 64.1979 42.7673 64.148 42.7173 64.1979C42.267 64.5469 42.242 65.1203 41.8418 65.4943C41.8918 65.4943 41.9668 65.5192 42.0169 65.5192C41.8668 65.2699 41.8168 65.0206 41.8168 64.7713C41.8168 64.6965 41.6917 64.5968 41.6166 64.6716C41.3165 65.0455 41.2164 65.619 41.0163 66.0428C40.9162 66.2672 40.516 66.8904 40.6411 66.2422C40.6911 65.968 40.8662 65.7187 40.9913 65.4694C40.9162 65.4444 40.8412 65.4195 40.7661 65.3946C40.541 66.1924 39.8906 67.389 39.0401 67.6383C37.9395 67.9624 38.1396 66.6162 38.3397 66.0178C38.5649 65.3198 38.9401 64.6467 39.3903 64.0733C39.4654 63.9735 39.5654 63.8489 39.6655 63.7492C39.8906 63.5497 39.9657 63.4998 40.2659 63.6744C40.591 63.8489 40.591 63.9486 40.516 64.2727C40.466 64.4472 40.3909 64.5968 40.3159 64.7464C40.1158 65.0456 39.8656 65.2949 39.5905 65.5192C39.5154 65.4943 39.5905 65.594 39.6155 65.5691Z" fill="#455A64"/>
</g>
<defs>
<clipPath id="clip0">
<rect width="43" height="90" fill="white" transform="translate(13 0.000976562)"/>
</clipPath>
</defs>
</svg>
