<svg width="70" height="83" viewBox="0 0 70 83" fill="none" xmlns="http://www.w3.org/2000/svg">
<circle cx="35" cy="48.001" r="35" fill="#EAEAEA"/>
<g clip-path="url(#clip0)">
<path d="M30.5019 24.0247C33.3382 24.0247 35.9855 24.5877 38.4437 25.5261C40.9019 26.4646 42.9819 27.7783 44.8728 29.4675C46.7637 31.1566 48.0873 33.2212 49.0328 35.661C49.9782 38.1009 50.5455 40.7285 50.5455 43.5437C50.5455 46.5467 49.9782 49.3619 48.8437 51.9895C47.7091 54.4294 46.1964 56.6816 44.1164 58.3707C42.0364 60.2476 39.7673 61.5613 36.9309 62.4998C34.0946 63.4382 31.2582 64.0012 27.8546 64.0012C23.3164 64.0012 19.3455 63.0628 15.7528 61.186C12.16 59.3091 9.51277 56.6816 7.62186 53.491L14.24 46.5467C15.9419 48.7989 18.0219 50.488 20.2909 51.8018C22.7491 53.1156 25.2073 53.8663 27.8546 53.8663C30.88 53.8663 33.5273 52.9279 35.4182 51.0511C37.4982 49.1742 38.4437 46.7344 38.4437 43.5437C38.4437 40.5408 37.4982 38.1009 35.6073 36.4118C33.7164 34.5349 31.4473 33.5965 28.4219 33.5965C26.5309 33.5965 24.8291 33.9719 23.1273 34.9103C21.4255 35.8487 20.1019 36.9748 19.1564 38.4763H9.51277C9.51277 38.2886 9.70186 37.7256 9.89095 36.5995C10.08 35.4734 10.4582 33.9719 10.8364 32.2827C11.2146 30.5936 11.5928 28.5291 11.9709 26.4646C12.3491 24.4 12.7273 22.1479 13.2946 19.8957C14.24 14.6405 15.5637 8.82233 16.6982 2.25342H46.9528V12.7637H25.0182L22.56 26.4646C23.3164 25.7138 24.2619 25.1508 25.5855 24.5877C26.9091 24.2124 28.6109 24.0247 30.5019 24.0247Z" fill="#D8D8D8"/>
<path d="M35.4182 22.523C38.2546 22.523 40.9018 23.0861 43.36 24.0245C45.8182 24.9629 47.8982 26.2767 49.7891 27.9658C51.68 29.655 53.0037 31.7195 53.9491 34.1594C54.8946 36.5993 55.4618 39.2268 55.4618 42.0421C55.4618 45.045 54.8946 47.8603 53.76 50.4878C52.6255 52.9277 51.1128 55.1799 49.0328 56.8691C46.9528 58.7459 44.6837 60.0597 41.8473 60.9981C39.0109 61.9365 36.1746 62.4996 32.7709 62.4996C28.2328 62.4996 24.2618 61.5612 20.6691 59.6843C17.0764 57.8075 14.4291 55.1799 12.5382 51.9893L19.1564 45.045C21.2364 47.4849 23.1273 49.3617 25.5855 50.6755C28.0437 51.9893 30.5018 52.74 33.1491 52.74C36.1746 52.74 38.8218 51.8016 40.7128 49.9248C42.7928 48.048 43.7382 45.6081 43.7382 42.4175C43.7382 39.4145 42.7928 36.9746 40.9018 35.2855C39.0109 33.4087 36.7418 32.4702 33.7164 32.4702C31.8255 32.4702 30.1237 32.8456 28.4218 33.784C26.72 34.7224 25.3964 35.8485 24.4509 37.35H14.4291C14.4291 37.1623 14.6182 36.5993 14.8073 35.4732C14.9964 34.3471 15.3746 32.8456 15.7528 31.1565C16.1309 29.4673 16.5091 27.4028 16.8873 25.3383C17.2655 23.2738 17.6437 21.0216 18.2109 18.7694C18.9673 13.3266 20.1018 7.50837 21.4255 0.939453H51.68V11.4497H29.9346L27.4764 25.1506C28.2328 24.3999 29.1782 23.8368 30.5018 23.2738C31.8255 22.8984 33.3382 22.523 35.4182 22.523Z" fill="white"/>
<path d="M39.7673 21.5846C42.6037 21.5846 45.251 22.1476 47.7091 23.086C50.1673 24.0244 52.2473 25.3382 54.1382 27.0274C56.0291 28.7165 57.3528 30.781 58.2982 33.2209C59.2437 35.6608 59.811 38.2884 59.811 41.1036C59.811 44.1066 59.2437 46.9218 58.1091 49.5494C56.9746 51.9893 55.4619 54.2414 53.3819 55.9306C51.3019 57.8074 49.0328 59.1212 46.1964 60.0596C43.3601 60.998 40.5237 61.5611 37.1201 61.5611C32.5819 61.5611 28.611 60.6227 25.0182 58.7458C21.4255 56.869 18.7782 54.2415 16.8873 51.0508L23.5055 44.1066C25.2073 46.3587 27.2873 48.0479 29.5564 49.3617C32.0146 50.6755 34.4728 51.4262 37.1201 51.4262C40.1455 51.4262 42.7928 50.4878 44.6837 48.611C46.7637 46.7341 47.7091 44.2942 47.7091 41.1036C47.7091 38.1007 46.7637 35.6608 44.8728 33.9717C42.9819 32.0948 40.7128 31.1564 37.6873 31.1564C35.7964 31.1564 34.0946 31.5318 32.3928 32.4702C30.691 33.4086 29.3673 34.5347 28.4219 36.0362H18.7782C18.7782 35.8485 18.9673 35.2854 19.1564 34.1593C19.3455 33.2209 19.5346 31.7195 19.9128 30.0303C20.291 28.3412 20.6691 26.2766 21.0473 24.2121C21.4255 22.1476 21.8037 19.8954 22.371 17.6432C23.3164 12.3881 24.6401 6.56989 25.7746 0.000976562H56.0291V10.5112H34.2837L31.8255 24.2121C32.5819 23.4614 33.5273 22.8983 34.851 22.3353C36.1746 21.7722 37.6873 21.5846 39.7673 21.5846Z" fill="#FF5C00"/>
</g>
<defs>
<clipPath id="clip0">
<rect width="52" height="64" fill="white" transform="translate(8 0.000976562)"/>
</clipPath>
</defs>
</svg>
