<svg width="76" height="81" viewBox="0 0 76 81" fill="none" xmlns="http://www.w3.org/2000/svg">
<g clip-path="url(#clip0)">
<path fill-rule="evenodd" clip-rule="evenodd" d="M18.4349 10.3822C17.3048 11.159 17.9405 13.8425 17.8699 14.125C17.658 15.1843 18.0818 19.7039 17.9405 21.1163C17.7992 22.5993 16.7398 24.5766 17.7992 25.4947C18.5056 29.9437 25.145 32.6272 26.6989 29.52C26.7695 26.4833 30.1598 18.9271 31.5018 14.0544C31.855 12.8539 33.6208 9.04044 32.2082 7.06311C31.855 6.56877 31.0074 6.07444 30.4424 6.00382C25.9219 5.15639 22.1078 8.26363 18.4349 10.3822Z" fill="#FF5C00"/>
<path fill-rule="evenodd" clip-rule="evenodd" d="M22.1784 51.7646C28.4647 51.7646 33.6208 54.4482 33.6208 57.8379C33.6208 61.157 28.4647 63.9111 22.1784 63.9111C15.8216 63.9111 10.7361 61.2276 10.7361 57.8379C10.7361 54.4482 15.8922 51.7646 22.1784 51.7646Z" fill="#B2B2B2"/>
<path fill-rule="evenodd" clip-rule="evenodd" d="M26.487 53.8132C26.487 53.8132 27.052 56.4261 25.9219 56.0024C25.4275 55.7905 25.5688 56.7792 25.6394 57.2029C25.7807 57.556 27.3346 58.3328 27.6171 58.3328C27.9703 58.3328 28.1115 58.1916 28.394 58.474C28.6766 58.7565 28.6059 59.1096 29.0297 59.4627C29.4535 59.7452 31.2193 60.5926 32.8439 59.8158C33.5502 59.4627 33.9033 59.2509 33.6208 58.5447C33.5502 58.3328 31.5725 57.3441 31.0781 57.0617C29.6654 56.3555 29.1004 54.9431 28.9591 54.59C28.8178 54.2369 28.394 53.2482 28.394 53.2482C28.394 53.1776 27.7584 52.9657 26.487 53.8132Z" fill="#DCCF71"/>
<path fill-rule="evenodd" clip-rule="evenodd" d="M26.487 53.8126C26.1338 54.3776 25.5688 55.3663 25.71 56.4962C25.8513 56.8493 27.2639 57.7673 27.5464 57.7673C28.2528 57.7673 28.5353 58.4735 29.0297 58.8266C29.8773 59.5328 31.6431 60.0977 33.2676 58.9678C33.6208 58.6853 33.4089 58.1204 33.197 57.8379C32.8438 57.4142 31.5018 57.2023 31.0074 56.9199C29.3829 56.1431 29.0297 54.2364 28.8885 53.8833C28.7472 53.5302 28.3234 53.1064 28.3234 53.1064C28.394 53.1771 27.7583 52.9652 26.487 53.8126Z" fill="#CB6E33"/>
<path d="M30.3011 57.7674C30.3011 57.7674 30.3011 57.838 30.3717 57.838C30.4424 57.838 30.4424 57.838 30.4424 57.838C30.5836 57.5555 30.7249 57.3436 30.9368 57.2024C31.1487 57.0612 31.29 57.0612 31.5725 57.0612C31.6431 57.0612 31.6431 57.0612 31.6431 56.9905C31.6431 56.9199 31.5725 56.9199 31.5725 56.9199C31.29 56.9199 31.0781 56.9199 30.8662 57.0612C30.5836 57.273 30.4424 57.4849 30.3011 57.7674Z" fill="#FFCC00"/>
<path d="M29.948 57.485C29.948 57.485 29.948 57.5556 30.0186 57.5556H30.0892C30.2305 57.2731 30.3717 57.1319 30.513 57.0613C30.6543 56.9907 30.8662 56.92 31.0074 56.92C31.0781 56.92 31.0781 56.92 31.0781 56.8494C31.0781 56.8494 31.0781 56.7788 31.0074 56.7788C30.7955 56.7788 30.5836 56.7788 30.4424 56.92C30.1598 57.0613 30.0186 57.2025 29.948 57.485Z" fill="#FFCC00"/>
<path d="M29.5948 57.2023C29.5948 57.2023 29.5948 57.2729 29.6654 57.2729H29.7361C29.8773 56.9904 30.0186 56.8492 30.1599 56.7786C30.3011 56.708 30.513 56.6373 30.6543 56.6373C30.7249 56.6373 30.7249 56.6373 30.7249 56.5667C30.7249 56.5667 30.7249 56.4961 30.6543 56.4961C30.4424 56.4961 30.2305 56.4961 30.0892 56.6373C29.8773 56.7079 29.6654 56.9198 29.5948 57.2023Z" fill="#FFCC00"/>
<path d="M29.2416 56.9201C29.2416 56.9201 29.2416 56.9907 29.3123 56.9907H29.3829C29.5242 56.7082 29.6654 56.567 29.8067 56.4963C29.948 56.4257 30.1599 56.3551 30.3011 56.3551C30.3717 56.3551 30.3717 56.3551 30.3717 56.2845C30.3717 56.2845 30.3717 56.2139 30.3011 56.2139C30.0892 56.2139 29.8773 56.2139 29.7361 56.3551C29.5242 56.4257 29.3123 56.6376 29.2416 56.9201Z" fill="#FFCC00"/>
<path d="M28.8885 56.567C28.8885 56.567 28.8885 56.6376 28.9591 56.6376H29.0297C29.171 56.3552 29.3123 56.2139 29.4535 56.1433C29.5948 56.0727 29.8067 56.0021 29.948 56.0021C30.0186 56.0021 30.0186 56.0021 30.0186 55.9315C30.0186 55.9315 30.0186 55.8608 29.948 55.8608C29.7361 55.8608 29.5242 55.8608 29.3829 56.0021C29.171 56.1433 28.9591 56.2846 28.8885 56.567Z" fill="#FFCC00"/>
<path d="M28.5353 56.2843C28.5353 56.2843 28.5353 56.3549 28.606 56.3549H28.6766C28.8179 56.0725 28.9591 55.9312 29.1004 55.8606C29.2416 55.79 29.4535 55.7194 29.5948 55.7194C29.6654 55.7194 29.6654 55.7194 29.6654 55.6487C29.6654 55.6487 29.6654 55.5781 29.5948 55.5781C29.3829 55.5781 29.171 55.5781 29.0297 55.7194C28.8179 55.79 28.606 56.0018 28.5353 56.2843Z" fill="#FFCC00"/>
<path d="M28.1822 55.9313C28.1822 55.9313 28.1822 56.0019 28.2528 56.0019H28.3234C28.4647 55.7194 28.6059 55.5782 28.7472 55.5076C28.8885 55.437 29.1004 55.3663 29.2416 55.3663C29.3123 55.3663 29.3123 55.3663 29.3123 55.2957C29.3123 55.2957 29.3123 55.2251 29.2416 55.2251C29.0297 55.2251 28.8178 55.2251 28.6766 55.3663C28.4647 55.5076 28.3234 55.7194 28.1822 55.9313Z" fill="#FFCC00"/>
<path fill-rule="evenodd" clip-rule="evenodd" d="M15.0446 59.1092C15.0446 59.1092 15.6097 61.7221 14.4796 61.2984C13.9851 61.0865 14.1264 62.1458 14.197 62.4989C14.3383 62.852 15.8922 63.6288 16.1747 63.6288C16.5279 63.6288 16.6692 63.4876 16.9517 63.77C17.2342 64.0525 17.1636 64.4056 17.5874 64.7587C18.0112 65.0412 19.777 65.8886 21.4015 65.1118C22.1078 64.7587 22.461 64.5468 22.1784 63.8406C22.1078 63.6288 20.1301 62.6401 19.6357 62.3576C18.2231 61.6515 17.658 60.2391 17.5167 59.886C17.3755 59.5329 16.9517 58.5442 16.9517 58.5442C16.9517 58.5442 16.316 58.2617 15.0446 59.1092Z" fill="#DCCF71"/>
<path fill-rule="evenodd" clip-rule="evenodd" d="M15.0446 59.1091C14.6915 59.674 14.1264 60.6627 14.2677 61.7926C14.4089 62.1457 15.8216 63.0637 16.1041 63.0637C16.8104 63.0637 17.0929 63.7699 17.5874 64.123C18.435 64.8292 20.2007 65.3942 21.8253 64.2643C22.1784 63.9818 21.9665 63.4168 21.7547 63.1343C21.4015 62.7106 20.0595 62.4988 19.5651 62.2163C17.9405 61.4395 17.5874 59.5328 17.4461 59.1797C17.3048 58.8266 16.881 58.4029 16.881 58.4029C16.881 58.4029 16.316 58.2616 15.0446 59.1091Z" fill="#CB6E33"/>
<path d="M18.8587 63.0637C18.8587 63.0637 18.8587 63.1344 18.9294 63.1344C19 63.1344 19 63.1344 19 63.1344C19.1413 62.8519 19.2825 62.64 19.4944 62.4988C19.7063 62.3575 19.8476 62.3575 20.1301 62.3575C20.2008 62.3575 20.2008 62.3575 20.2008 62.2869C20.2008 62.2163 20.1301 62.2163 20.1301 62.2163C19.8476 62.2163 19.6357 62.2163 19.4238 62.3575C19.1413 62.5694 18.9294 62.7813 18.8587 63.0637Z" fill="#FFCC00"/>
<path d="M18.5056 62.7814C18.5056 62.7814 18.5056 62.852 18.5762 62.852H18.6468C18.7881 62.5695 18.9294 62.4283 19.0706 62.3577C19.2119 62.2871 19.4238 62.2164 19.5651 62.2164C19.6357 62.2164 19.6357 62.2164 19.6357 62.1458C19.6357 62.1458 19.6357 62.0752 19.5651 62.0752C19.3532 62.0752 19.1413 62.0752 19 62.2164C18.7175 62.3577 18.5762 62.4989 18.5056 62.7814Z" fill="#FFCC00"/>
<path d="M18.1524 62.4987C18.1524 62.4987 18.1524 62.5693 18.2231 62.5693H18.2937C18.435 62.2868 18.5762 62.1456 18.7175 62.075C18.8588 62.0043 19.0707 61.9337 19.2119 61.9337C19.2825 61.9337 19.2825 61.9337 19.2825 61.8631C19.2825 61.8631 19.2825 61.7925 19.2119 61.7925C19 61.7925 18.7881 61.7925 18.6469 61.9337C18.3643 62.0043 18.2231 62.2162 18.1524 62.4987Z" fill="#FFCC00"/>
<path d="M17.7993 62.1456C17.7993 62.1456 17.7993 62.2163 17.8699 62.2163H17.9405C18.0818 61.9338 18.2231 61.7925 18.3643 61.7219C18.5056 61.6513 18.7175 61.5807 18.8588 61.5807C18.9294 61.5807 18.9294 61.5807 18.9294 61.5101C18.9294 61.4395 18.9294 61.4395 18.8588 61.4395C18.6469 61.4395 18.435 61.4395 18.2937 61.5807C18.0112 61.7219 17.8699 61.9338 17.7993 62.1456Z" fill="#FFCC00"/>
<path d="M17.4461 61.8634C17.4461 61.8634 17.4461 61.934 17.5167 61.934H17.5874C17.7286 61.6516 17.8699 61.5103 18.0112 61.4397C18.1524 61.3691 18.3643 61.2985 18.5056 61.2985C18.5762 61.2985 18.5762 61.2985 18.5762 61.2278C18.5762 61.1572 18.5762 61.1572 18.5056 61.1572C18.2937 61.1572 18.0818 61.1572 17.9405 61.2985C17.658 61.4397 17.5167 61.5809 17.4461 61.8634Z" fill="#FFCC00"/>
<path d="M17.093 61.5807C17.093 61.5807 17.093 61.6513 17.1636 61.6513H17.2342C17.3755 61.3689 17.5167 61.2276 17.658 61.157C17.7993 61.0864 18.0112 61.0158 18.1524 61.0158C18.2231 61.0158 18.2231 61.0158 18.2231 60.9451C18.2231 60.9451 18.2231 60.8745 18.1524 60.8745C17.9405 60.8745 17.7286 60.8745 17.5874 61.0158C17.3049 61.0864 17.1636 61.2982 17.093 61.5807Z" fill="#FFCC00"/>
<path d="M16.7398 61.2277C16.7398 61.2277 16.7398 61.2983 16.8104 61.2983H16.8811C17.0223 61.0158 17.1636 60.8746 17.3048 60.804C17.4461 60.7333 17.658 60.6627 17.7993 60.6627C17.8699 60.6627 17.8699 60.6627 17.8699 60.5921C17.8699 60.5921 17.8699 60.5215 17.7993 60.5215C17.5874 60.5215 17.3755 60.5215 17.2342 60.6627C17.0223 60.804 16.8104 61.0158 16.7398 61.2277Z" fill="#FFCC00"/>
<path fill-rule="evenodd" clip-rule="evenodd" d="M21.2602 30.014C21.8253 31.7795 22.2491 33.4037 22.6729 35.1692C23.3792 37.3584 24.9331 40.1125 24.7212 42.7254C24.2268 47.5275 25.2156 51.0585 25.145 55.225C26.4164 56.2137 30.2305 55.4369 29.5948 53.8832C29.171 48.7987 29.5242 42.8667 29.3829 41.3131C29.3829 41.1012 29.2417 39.8301 29.2417 39.1239C29.3123 34.7455 28.3234 26.2006 27.829 24.647C27.829 24.647 26.2751 25.6356 23.1673 26.2712C23.026 26.9068 21.1896 29.7315 21.2602 30.014Z" fill="#015C42"/>
<path fill-rule="evenodd" clip-rule="evenodd" d="M16.7398 44.8442C16.7398 45.056 16.6691 45.2679 16.6691 45.4798C14.8327 48.6576 14.5502 56.7788 13.4201 59.5329C14.0558 60.8041 17.3755 61.7221 18.5056 60.3804C18.5762 58.6855 19.9182 52.1886 20.8364 49.3638C20.9071 49.1519 21.6134 47.4571 21.684 47.2452C23.0967 42.5844 24.5799 40.9601 25.0744 32.9096C27.6877 32.4859 26.3457 28.6724 26.487 25.2827C22.1078 28.1781 18.7881 27.0482 17.7286 26.2008C16.2454 28.5312 16.7398 32.9802 17.5874 33.4745C17.1636 37.4998 17.3048 41.3132 16.9517 44.2792C16.9517 44.4911 16.881 44.6323 16.7398 44.8442Z" fill="#007554"/>
<path fill-rule="evenodd" clip-rule="evenodd" d="M17.5874 26.4831C19.1413 27.8248 25.7807 28.3192 27.8996 25.3532C27.8996 25.0001 27.9703 24.3645 27.9703 24.082C25.5688 25.8475 20.4833 27.048 17.7993 25.565C17.7286 25.8475 17.658 26.2006 17.5874 26.4831Z" fill="#015C42"/>
<path fill-rule="evenodd" clip-rule="evenodd" d="M29.9479 8.12208C27.6171 8.89889 28.0409 11.0175 29.4535 12.5711C29.5242 12.6417 31.4312 18.2206 35.3866 20.8335C37.1524 22.4577 37.9293 19.068 37.5056 18.0794C37.223 17.3026 35.5985 13.7716 34.3271 11.653C33.5502 8.1927 32.4201 6.28599 29.9479 8.12208Z" fill="#FF5C00"/>
<path fill-rule="evenodd" clip-rule="evenodd" d="M28.1115 6.92158C30.1598 6.78034 31.0781 10.1701 29.3123 16.0314C29.8773 16.4551 30.2305 16.1021 31.0781 16.0314C32.5613 11.1587 33.197 7.83963 30.6543 6.42725C29.4535 6.56848 29.2416 6.42725 28.1115 6.92158Z" fill="#007554"/>
<path fill-rule="evenodd" clip-rule="evenodd" d="M19.2119 26.0593C21.684 24.082 23.2379 18.9974 23.5204 14.054C26.6989 14.5484 29.7361 13.701 31.9257 12.2886C30.9368 15.9608 29.5948 23.1639 27.829 25.1412C26.487 26.5536 22.3197 26.9773 19.2119 26.0593Z" fill="#007554"/>
<path fill-rule="evenodd" clip-rule="evenodd" d="M19.4944 9.81729C21.4015 9.67605 23.7323 10.3822 23.6617 16.6673C24.2974 17.091 25.2156 17.0204 25.9219 17.0204C25.9926 11.7946 24.4387 8.47553 21.8959 8.26367C20.9071 8.40491 20.4126 9.25234 19.4944 9.81729Z" fill="#007554"/>
<path fill-rule="evenodd" clip-rule="evenodd" d="M23.5911 22.67C24.4387 20.4101 25.0744 18.0797 25.0744 15.6081C27.052 15.6787 28.8885 15.3256 30.513 14.3369C29.8067 16.9498 29.7361 20.5514 28.5353 21.9638C26.7695 22.5287 25.0744 22.8112 23.5911 22.67Z" fill="#015C42"/>
<path fill-rule="evenodd" clip-rule="evenodd" d="M20.4833 44.703C20.4833 42.5844 20.6952 40.5365 21.4015 38.4179C19.7063 38.0648 18.435 37.4998 17.4461 36.2993C16.9517 38.9828 16.1041 42.4432 17.0929 43.1494C18.3643 44.0674 19.2119 44.5617 20.4833 44.703Z" fill="#015C42"/>
<path fill-rule="evenodd" clip-rule="evenodd" d="M20.9777 38.5589C19.2119 37.9233 18.223 37.3584 17.3755 36.5815C17.1636 37.1465 16.9517 37.6408 16.6691 38.2058C17.658 39.1944 18.7881 39.9713 20.2714 40.3244C20.6245 39.7594 20.9071 39.1944 20.9777 38.5589Z" fill="#007554"/>
<path fill-rule="evenodd" clip-rule="evenodd" d="M24.0855 28.178C24.2268 31.4265 23.803 34.2513 23.2379 36.7936C21.4721 37.0054 19.5651 36.4405 18.2937 35.593C18.4349 34.3219 18.5056 33.4038 18.7881 32.0621C21.119 31.2147 21.7547 29.661 21.9665 28.1074C22.6022 28.2487 23.4498 28.178 24.0855 28.178Z" fill="#015C42"/>
<path fill-rule="evenodd" clip-rule="evenodd" d="M25.2862 15.9609C27.5465 15.749 28.9591 15.396 30.2305 14.6191C30.3718 15.3253 30.4424 16.0315 30.5836 16.7377C29.1004 17.5851 27.5465 18.2207 25.6394 18.2207C25.3569 17.5145 25.2156 16.7377 25.2862 15.9609Z" fill="#007554"/>
<path fill-rule="evenodd" clip-rule="evenodd" d="M17.658 38.5588C17.7286 38.4882 17.7286 38.2763 17.5874 38.0645C17.4461 37.9232 17.2342 37.8526 17.1636 37.9232C17.093 37.9938 17.093 38.2057 17.2342 38.4175C17.3755 38.6294 17.5874 38.7 17.658 38.5588Z" fill="#015C42"/>
<path fill-rule="evenodd" clip-rule="evenodd" d="M20.2007 39.9006C20.2714 39.83 20.2714 39.6181 20.1301 39.4062C19.9888 39.265 19.7769 39.1944 19.7063 39.265C19.6357 39.3356 19.6357 39.5475 19.7769 39.7593C19.9182 39.9712 20.1301 40.0418 20.2007 39.9006Z" fill="#015C42"/>
<path fill-rule="evenodd" clip-rule="evenodd" d="M29.2416 16.7376C29.171 16.5964 29.2416 16.4552 29.4535 16.3139C29.6654 16.1727 29.8067 16.1727 29.8773 16.3139C29.948 16.4552 29.8773 16.5964 29.6654 16.7376C29.5242 16.8789 29.3123 16.8789 29.2416 16.7376Z" fill="#015C42"/>
<path fill-rule="evenodd" clip-rule="evenodd" d="M26.0632 17.6556C25.9926 17.5144 26.0632 17.3731 26.2751 17.2319C26.487 17.0907 26.6283 17.0907 26.6989 17.2319C26.7695 17.3731 26.6989 17.5144 26.487 17.6556C26.3457 17.7969 26.1338 17.7969 26.0632 17.6556Z" fill="#015C42"/>
<path fill-rule="evenodd" clip-rule="evenodd" d="M58.6952 16.1724L74.9405 25.4941V50.9169L58.6952 41.5952V16.1724Z" fill="#878787"/>
<path fill-rule="evenodd" clip-rule="evenodd" d="M74.7992 27.6128L62.2974 42.584V34.8866L74.7992 27.6128Z" fill="#575756"/>
<path fill-rule="evenodd" clip-rule="evenodd" d="M74.7993 49.7166L62.2974 56.9197L48.2416 48.8692L60.7435 41.666L74.7993 49.7166Z" fill="#DADADA"/>
<path fill-rule="evenodd" clip-rule="evenodd" d="M75.9294 26.0591L68.513 30.2962V31.2849L74.7993 27.6833V49.7871L68.513 53.318V54.801L75.9294 50.5639V26.0591ZM68.513 30.2256L60.9554 34.5334V59.1088L68.513 54.801V53.318L62.2268 56.9196V34.8158L68.513 31.2143V30.2256Z" fill="#B2B2B2"/>
<path fill-rule="evenodd" clip-rule="evenodd" d="M44.7807 24.3643L60.9554 33.686V59.1088L44.7807 49.7871V24.3643Z" fill="#878787"/>
<path fill-rule="evenodd" clip-rule="evenodd" d="M20.6952 38.0645L36.9406 47.3862V72.809L20.6952 63.4873V38.0645Z" fill="#878787"/>
<path fill-rule="evenodd" clip-rule="evenodd" d="M36.7993 49.5049L24.2974 64.4055V56.7786L36.7993 49.5049Z" fill="#575756"/>
<path fill-rule="evenodd" clip-rule="evenodd" d="M36.7993 71.6087L24.368 78.8118L10.2417 70.7612L22.7435 63.5581L36.7993 71.6087Z" fill="#DADADA"/>
<path fill-rule="evenodd" clip-rule="evenodd" d="M38 47.1035L30.5837 51.3407V53.1061L36.8699 49.5046V71.6083L30.5837 75.2099V76.6929L38 72.4557V47.1035ZM30.513 51.27L22.9554 55.5778V81.0006L30.513 76.6929V75.2099L24.2268 78.8115V56.6371L30.513 53.0355V51.27Z" fill="#B2B2B2"/>
<path fill-rule="evenodd" clip-rule="evenodd" d="M6.7807 46.2563L22.9554 55.5781V81.0009L6.7807 71.6792V46.2563Z" fill="#878787"/>
<path fill-rule="evenodd" clip-rule="evenodd" d="M75.9294 27.1891L23.026 57.061L4.23793 46.115V44.9851L57.1413 16.2432L75.9294 26.0592V27.1891Z" fill="#B2B2B2"/>
<path fill-rule="evenodd" clip-rule="evenodd" d="M75.9294 26.0592L23.026 55.9311L4.23793 44.9851L57.1413 15.1133L75.9294 26.0592Z" fill="#DADADA"/>
<path fill-rule="evenodd" clip-rule="evenodd" d="M37.4349 18.0795C40.3309 19.28 43.368 21.4692 43.9331 21.8929C44.2156 22.8109 43.0855 24.7883 41.8848 24.4352C40.119 23.9408 38.8476 23.5877 35.1747 20.8336C33.4796 19.6331 36.2342 17.5851 37.4349 18.0795Z" fill="#FF5C00"/>
<path fill-rule="evenodd" clip-rule="evenodd" d="M19.1413 10.5232C16.7398 10.0995 15.9628 15.0428 16.5279 17.0907C16.5985 17.1614 16.2453 22.1047 18.0818 25.6357C19.2119 27.4011 21.4015 25.4238 21.2602 23.3758C21.8959 20.5511 21.7546 18.0088 21.8253 17.0907C22.3903 14.6191 21.7546 10.4526 19.1413 10.5232Z" fill="#FF5C00"/>
<path fill-rule="evenodd" clip-rule="evenodd" d="M4.23791 44.9854L23.026 55.9313V57.0612L4.16728 46.1859L4.23791 44.9854Z" fill="#878787"/>
<path fill-rule="evenodd" clip-rule="evenodd" d="M56.8587 27.331L21.9665 47.3868L13.632 42.4435L13.5613 41.0311L48.5242 23.5176L56.8587 25.848V27.331Z" fill="#934428"/>
<path fill-rule="evenodd" clip-rule="evenodd" d="M56.8587 25.8478L21.9665 45.9036L13.5613 41.0309L48.5242 20.9751L56.8587 25.8478Z" fill="#D4A007"/>
<path fill-rule="evenodd" clip-rule="evenodd" d="M21.9665 45.9035V47.3865L13.5613 42.4431V41.0308L21.9665 45.9035Z" fill="#B36A23"/>
<path fill-rule="evenodd" clip-rule="evenodd" d="M45.0632 22.8814C45.4164 23.517 44.7807 24.7175 44.145 25.2119C43.4387 25 42.8736 24.5057 42.1673 24.2938C41.9554 23.3758 42.5911 22.1046 43.4387 21.9634C44.0744 22.3165 44.3569 22.5283 45.0632 22.8814Z" fill="#CD4A00"/>
<path fill-rule="evenodd" clip-rule="evenodd" d="M44.2863 24.7883C44.0037 24.5764 44.3569 23.2347 44.8513 23.2347C45.6989 23.1641 46.264 23.2347 47.2528 23.1641C47.5353 23.2347 47.6766 23.3053 47.8885 23.5172C48.1004 23.6584 48.5948 24.1527 48.7361 24.294C49.0186 24.6471 49.1599 25.0002 49.4424 25.4239C49.3718 25.4945 49.3011 25.4945 49.2305 25.4945C49.3011 25.6357 49.513 25.7063 49.4424 25.777C49.1599 25.9182 48.948 25.7064 48.948 25.7064L49.3718 26.0594C49.1599 26.2713 48.8067 26.2007 48.6654 26.1301C48.5242 26.0594 48.0298 25.5651 47.8885 25.4945C47.5353 25.2826 46.829 24.8589 47.606 25.4239C47.9591 25.6357 48.6654 26.2713 48.4535 26.3419C48.1004 26.4832 47.8179 26.1301 47.4647 25.9182C47.1115 25.7063 46.1933 25.212 45.7695 25.212C44.8513 25.1414 44.7101 25.0708 44.2863 24.7883Z" fill="#DB9669"/>
<path fill-rule="evenodd" clip-rule="evenodd" d="M44.2863 24.7882C44.4275 25.0707 45.2045 25.7062 45.487 25.9181C45.8402 26.13 46.3346 26.2712 46.6878 26.5537C46.829 26.2712 46.7584 25.9887 46.1227 25.6356C45.8402 25.2825 46.0521 23.8701 45.2045 24.2939C44.7101 24.5057 44.0037 24.2939 44.2863 24.7882Z" fill="#DB9669"/>
<path fill-rule="evenodd" clip-rule="evenodd" d="M29.6654 29.6607C30.2305 29.5901 31.2899 29.8019 31.6431 29.8726C32.1375 30.0138 32.3494 30.155 32.7732 30.2963C32.5613 30.5787 32.5613 30.7906 31.7137 30.5081C31.0781 30.5081 29.2416 31.2849 29.171 30.4375C29.3123 29.9432 28.8885 29.6607 29.6654 29.6607Z" fill="#DB9669"/>
<path fill-rule="evenodd" clip-rule="evenodd" d="M38.2826 32.6271L32.7733 35.805L29.5242 33.9689L35.0335 30.791L38.2826 32.6271Z" fill="#9D9D9C"/>
<path fill-rule="evenodd" clip-rule="evenodd" d="M38.2826 32.627L32.7026 35.8048V36.2285L38.2826 32.98V32.627Z" fill="#706F6F"/>
<path fill-rule="evenodd" clip-rule="evenodd" d="M29.5242 33.9688L32.7026 35.8048V36.2286L29.5242 34.3218V33.9688Z" fill="#3C3C3B"/>
<path fill-rule="evenodd" clip-rule="evenodd" d="M38.2826 31.2853C36.3755 31.6384 34.5391 32.6977 32.7733 34.4632L29.5242 32.6271C31.2194 31.0028 33.0558 29.8023 35.1041 29.4492L38.2826 31.2853Z" fill="#FFED00"/>
<path fill-rule="evenodd" clip-rule="evenodd" d="M38.2826 31.2852C36.3755 31.6383 34.4684 32.6269 32.7026 34.463V35.6635C34.5391 34.6043 36.3755 33.545 38.2826 32.4857V31.2852Z" fill="#FFCC00"/>
<path fill-rule="evenodd" clip-rule="evenodd" d="M29.5242 32.627C30.5837 33.2625 31.6432 33.8275 32.7026 34.463V35.6636C31.6432 35.028 30.5837 34.463 29.5242 33.8275V32.627Z" fill="#EBC83F"/>
<path fill-rule="evenodd" clip-rule="evenodd" d="M36.1636 29.1665C35.1041 29.3784 34.0447 29.8021 33.1264 30.8614V32.8387C34.1153 32.0619 35.1041 31.4969 36.1636 31.1438V29.1665Z" fill="#FFCC00"/>
<path fill-rule="evenodd" clip-rule="evenodd" d="M31.3606 29.8022C31.9257 30.1553 32.5614 30.5084 33.1264 30.7909V32.7682C32.5614 32.4152 31.9257 32.0621 31.3606 31.7796V29.8022Z" fill="#EBC83F"/>
<path fill-rule="evenodd" clip-rule="evenodd" d="M30.4424 33.0507L27.5465 34.7455L28.2528 36.0167L31.4312 34.3924C31.6431 34.2512 31.7138 34.1099 31.7138 33.8981C32.632 32.1326 31.3606 32.4857 30.4424 33.0507Z" fill="#575756"/>
<path fill-rule="evenodd" clip-rule="evenodd" d="M31.4312 32.6269L27.8996 34.6749C27.9703 34.6749 28.0409 34.7455 28.1115 34.8161L31.9257 32.6975C31.855 32.6269 31.6431 32.5563 31.4312 32.6269Z" fill="#838281"/>
<path fill-rule="evenodd" clip-rule="evenodd" d="M28.1822 36.0168C27.9703 36.0874 27.6171 35.8755 27.4759 35.4518C27.3346 35.0987 27.4052 34.7456 27.6171 34.675C27.829 34.6044 28.1822 34.8162 28.3235 35.24C28.4647 35.5931 28.3941 35.9461 28.1822 36.0168Z" fill="#706F6F"/>
<path fill-rule="evenodd" clip-rule="evenodd" d="M28.1116 35.8752C27.8997 35.9458 27.6878 35.734 27.5465 35.4515C27.4052 35.169 27.4759 34.8866 27.6878 34.8159C27.8997 34.7453 28.1116 34.9572 28.2528 35.2396C28.3941 35.5927 28.3235 35.8752 28.1116 35.8752Z" fill="#1D1D1B"/>
<path fill-rule="evenodd" clip-rule="evenodd" d="M31.2194 31.5678L32.7733 30.5791V31.2853L31.7844 31.9209C31.6432 31.9915 31.5019 31.9915 31.4313 31.9209C31.29 31.9209 31.2194 31.7796 31.2194 31.5678Z" fill="#3C3C3B"/>
<path fill-rule="evenodd" clip-rule="evenodd" d="M36.2343 27.6836C36.3755 27.6836 36.4461 27.6836 36.5168 27.7542L37.2937 28.1779L35.7398 28.8841L35.8811 28.6723C34.1859 29.3784 32.067 30.4377 30.1599 31.7795L30.3718 31.8501L29.4536 33.2625L28.6766 32.8388C28.3235 32.7682 28.2528 31.7795 28.9592 31.1439C31.1487 29.1666 34.1859 27.6836 36.2343 27.6836Z" fill="#FFED00"/>
<path fill-rule="evenodd" clip-rule="evenodd" d="M37.0112 28.1777C37.7175 28.1777 37.7881 29.1664 37.0818 29.5195C36.5874 29.7314 36.4461 29.237 36.1636 29.3783C34.1859 30.2257 31.6432 31.6381 29.5948 33.2623C29.1004 33.686 28.8179 32.3443 29.5948 31.6381C31.9257 29.6607 34.9629 28.1777 37.0112 28.1777Z" fill="#FFCC00"/>
<path fill-rule="evenodd" clip-rule="evenodd" d="M29.4536 30.7203C29.6655 30.7909 30.1599 30.9321 30.2305 31.144V31.7796C31.5725 30.7909 33.4796 29.5904 34.751 29.1666C35.1041 29.0254 35.4573 28.8136 35.8104 28.7429L35.6692 28.9548L37.2231 28.2486L36.4461 27.8249C36.3755 27.7543 36.3049 27.7543 36.1636 27.7543C34.3272 27.6836 31.6432 28.9548 29.4536 30.7203Z" fill="#575756"/>
<path fill-rule="evenodd" clip-rule="evenodd" d="M30.2305 31.144C30.2305 31.3559 30.2305 31.5678 30.2305 31.7796C31.9257 30.5085 34.751 28.8136 35.6692 29.0961C35.8811 29.1667 36.0223 29.2373 36.093 29.3079C36.3755 29.5904 36.5874 29.661 37.0112 29.4492C37.7175 29.0961 37.6469 28.1074 36.9405 28.1074C35.1041 28.178 32.4201 29.3786 30.2305 31.144Z" fill="#1D1D1B"/>
<path fill-rule="evenodd" clip-rule="evenodd" d="M32.7026 30.4377C32.8439 30.579 32.7732 30.7908 32.632 31.0027C32.4907 31.2145 32.2788 31.2851 32.1375 31.2145C31.9963 31.0733 32.0669 30.8614 32.2082 30.6496C32.3494 30.4377 32.5613 30.2965 32.7026 30.4377Z" fill="#1D1D1B"/>
<path fill-rule="evenodd" clip-rule="evenodd" d="M32.632 30.5083L32.7732 30.5789C32.7732 30.6495 32.632 30.8613 32.5613 30.932C32.4907 31.0026 32.4201 31.1438 32.3494 31.2144L32.2082 31.0732C32.1376 31.0026 32.1376 30.7907 32.2788 30.5789C32.3494 30.5083 32.4907 30.4376 32.632 30.5083Z" fill="#575756"/>
<path fill-rule="evenodd" clip-rule="evenodd" d="M32.7026 30.579C32.7732 30.6496 32.7732 30.8615 32.632 31.0733C32.4907 31.2145 32.3494 31.2852 32.2082 31.2145C32.1376 31.1439 32.1376 30.9321 32.2788 30.7202C32.4201 30.579 32.632 30.5084 32.7026 30.579Z" fill="#1D1D1B"/>
<path fill-rule="evenodd" clip-rule="evenodd" d="M32.2788 31.285C32.2788 31.2144 32.2788 31.2144 32.2788 31.285C32.1375 31.1437 32.1375 31.0025 32.2788 30.7907C32.3494 30.72 32.3494 30.6494 32.4201 30.6494L32.3494 30.72C32.2082 30.9319 32.2082 31.1437 32.2788 31.285Z" fill="white"/>
<path fill-rule="evenodd" clip-rule="evenodd" d="M33.974 30.5789L35.1041 29.9434C35.1747 29.9434 35.1747 29.9434 35.1747 29.9434C35.1747 30.014 35.1747 30.014 35.1041 30.0846L33.974 30.7202C33.9034 30.7202 33.9034 30.7202 33.9034 30.7202C33.9034 30.6495 33.9034 30.6495 33.974 30.5789Z" fill="#3C3C3B"/>
<path fill-rule="evenodd" clip-rule="evenodd" d="M33.974 30.8616L35.1041 30.2261C35.1747 30.2261 35.1747 30.2261 35.1747 30.2261C35.1747 30.2967 35.1747 30.2967 35.1041 30.3673L33.974 31.0029C33.9034 31.0029 33.9034 31.0029 33.9034 31.0029C33.9034 30.9323 33.9034 30.8616 33.974 30.8616Z" fill="#3C3C3B"/>
<path fill-rule="evenodd" clip-rule="evenodd" d="M33.974 31.0736L35.1041 30.438C35.1747 30.438 35.1747 30.438 35.1747 30.438C35.1747 30.5086 35.1747 30.5086 35.1041 30.5792L33.974 31.2148C33.9034 31.2148 33.9034 31.2148 33.9034 31.2148C33.9034 31.1442 33.9034 31.0736 33.974 31.0736Z" fill="#3C3C3B"/>
<path fill-rule="evenodd" clip-rule="evenodd" d="M33.974 31.285L35.1041 30.6494C35.1747 30.6494 35.1747 30.6494 35.1747 30.6494C35.1747 30.72 35.1747 30.72 35.1041 30.7907L33.974 31.4262C33.9034 31.4262 33.9034 31.4262 33.9034 31.4262C33.9034 31.3556 33.9034 31.3556 33.974 31.285Z" fill="#3C3C3B"/>
<path fill-rule="evenodd" clip-rule="evenodd" d="M33.974 31.5677L35.1041 30.9321C35.1747 30.9321 35.1747 30.9321 35.1747 30.9321C35.1747 31.0027 35.1747 31.0027 35.1041 31.0734L33.974 31.7089C33.9034 31.7089 33.9034 31.7089 33.9034 31.7089C33.9034 31.6383 33.9034 31.5677 33.974 31.5677Z" fill="#3C3C3B"/>
<path fill-rule="evenodd" clip-rule="evenodd" d="M34.2566 34.1805L35.3867 33.5449C35.4573 33.5449 35.4573 33.5449 35.4573 33.5449C35.4573 33.6155 35.4573 33.6155 35.3867 33.6862L34.2566 34.3217C34.1859 34.3217 34.1859 34.3217 34.1859 34.3217C34.1859 34.2511 34.1859 34.1805 34.2566 34.1805Z" fill="#3C3C3B"/>
<path fill-rule="evenodd" clip-rule="evenodd" d="M34.2566 34.3924L35.3867 33.7568C35.4573 33.7568 35.4573 33.7568 35.4573 33.7568C35.4573 33.8275 35.4573 33.8275 35.3867 33.8981L34.2566 34.5336C34.1859 34.5336 34.1859 34.5336 34.1859 34.5336C34.1859 34.463 34.1859 34.463 34.2566 34.3924Z" fill="#3C3C3B"/>
<path fill-rule="evenodd" clip-rule="evenodd" d="M35.6692 33.3328L36.7993 32.6973C36.8699 32.6973 36.8699 32.6973 36.8699 32.6973C36.8699 32.7679 36.8699 32.7679 36.7993 32.8385L35.6692 33.4741C35.5986 33.4741 35.5986 33.4741 35.5986 33.4741C35.5986 33.4035 35.6692 33.3328 35.6692 33.3328Z" fill="#3C3C3B"/>
<path fill-rule="evenodd" clip-rule="evenodd" d="M35.6692 33.5452L36.7993 32.9097C36.8699 32.9097 36.8699 32.9097 36.8699 32.9097C36.8699 32.9803 36.8699 32.9803 36.7993 33.0509L35.6692 33.6865C35.5986 33.6865 35.5986 33.6865 35.5986 33.6865C35.5986 33.6159 35.6692 33.6159 35.6692 33.5452Z" fill="#3C3C3B"/>
<path fill-rule="evenodd" clip-rule="evenodd" d="M28.1822 30.7205C28.2528 30.438 28.6766 29.3081 29.2416 29.5199C29.948 29.873 30.8662 30.1555 30.9368 30.2261C31.1487 30.2967 32.2788 31.0736 32.4201 31.1442C32.632 31.2854 32.5613 31.7091 32.2082 31.921C32.0669 32.1328 31.855 32.4153 31.5725 32.4153C31.4312 32.6272 31.3606 32.7684 31.0074 32.839C30.8662 32.9803 30.7955 33.1921 30.6543 33.1921C30.0892 33.2627 29.6654 32.839 29.1004 32.3447C28.4647 31.8504 28.0409 31.4973 28.1822 30.7205Z" fill="#F2B387"/>
<path fill-rule="evenodd" clip-rule="evenodd" d="M29.171 29.3078C29.6654 29.8021 28.8179 31.5676 27.9703 31.4263C27.3346 31.1439 26.9814 30.8614 26.3457 30.5789C25.9219 29.8021 27.0521 28.1779 27.9703 28.4603C28.5353 28.8134 28.5353 28.8841 29.171 29.3078Z" fill="#CD4A00"/>
<path fill-rule="evenodd" clip-rule="evenodd" d="M18.0818 25.7768C18.6468 27.4011 24.6506 30.5083 26.9108 31.0026C27.829 30.7201 29.0297 28.4603 28.3234 28.0366C27.6171 27.4717 23.1673 24.6469 21.0483 23.3758C19.3532 22.7402 18.2937 24.3644 18.0818 25.7768Z" fill="#FF5C00"/>
<path d="M27.4758 34.6747C27.8996 34.4629 28.3941 34.6041 28.606 34.9572C28.8178 35.3809 28.6766 35.8753 28.3234 36.0871C23.6617 38.7706 19.7063 39.1944 16.4573 39.6181C12.0781 40.1124 9.18216 40.4655 7.91078 46.8918C7.20446 50.4934 5.36803 52.8944 3.81413 54.8718C1.41264 57.9084 -0.14126 59.8857 6.78067 65.1115V67.5126C-2.47212 60.6625 -0.565052 57.7671 2.54275 53.8125C3.95539 51.9764 5.72119 49.7872 6.35688 46.5387C7.76952 38.9825 11.1599 38.5588 16.2454 37.9938C19.3532 37.5701 23.1673 37.1464 27.4758 34.6747Z" fill="#EDEDED"/>
<path fill-rule="evenodd" clip-rule="evenodd" d="M27.9703 4.87354C27.264 5.72096 26.0632 6.35653 25.3569 7.20396C24.7918 7.83953 25.3569 9.39315 25.4982 9.88748C26.2045 12.2179 27.6878 11.653 28.2528 10.7349C28.5353 10.3112 28.8179 9.74625 29.0298 9.32253C29.2417 8.8282 28.3941 8.19263 28.8179 7.76891L27.9703 4.87354Z" fill="#DB9669"/>
<path fill-rule="evenodd" clip-rule="evenodd" d="M35.8811 5.79184C35.4573 6.28617 35.2454 6.92174 34.9629 7.48669C34.6803 8.19288 33.9034 7.76917 33.7621 8.96969C33.3383 9.60526 32.4907 10.3821 31.855 10.8058C31.4313 11.1589 30.8662 11.7238 29.8774 11.5826C28.3941 11.4414 28.1116 9.60526 27.4759 8.47536C26.7695 7.34546 28.2528 6.49803 28.606 5.43874C29.2417 3.53203 31.0075 1.62532 33.1264 2.33151C34.0446 2.61398 35.3866 3.46141 35.8811 4.37946C35.9517 4.59131 36.3049 5.2975 35.8811 5.79184Z" fill="#F2B387"/>
<path fill-rule="evenodd" clip-rule="evenodd" d="M27.6887 3.39062L27.6171 3.46212L27.6887 3.39062Z" fill="#221F1F"/>
<path fill-rule="evenodd" clip-rule="evenodd" d="M30.7956 5.22672C30.4424 5.1561 30.3011 5.08548 29.948 5.36795C29.6655 5.65043 29.4536 5.50919 28.9591 6.14476C28.8179 6.286 28.2528 4.94424 26.9814 5.79167C26.6989 3.74372 29.0298 0.354004 30.5837 0.354004C32.2788 1.97824 32.8439 2.47257 32.7026 4.09681C32.4907 4.66176 31.29 5.36795 30.7956 5.22672Z" fill="#4F2B0C"/>
<path fill-rule="evenodd" clip-rule="evenodd" d="M34.751 1.69588C36.9406 4.23817 37.435 6.35674 35.5986 6.42736C34.9629 6.42736 33.9034 5.93302 32.632 4.23817C32.7733 2.96702 32.4908 2.1196 30.6543 0.283501C32.3495 -0.705165 34.1859 0.989691 34.751 1.69588Z" fill="#4F2B0C"/>
<path fill-rule="evenodd" clip-rule="evenodd" d="M30.3021 8.82812L30.2305 8.89962C30.3021 8.89962 30.3021 8.89962 30.3021 8.82812Z" fill="#221F1F"/>
<path fill-rule="evenodd" clip-rule="evenodd" d="M31.2193 6.7098C32.632 7.34537 33.9034 7.69847 34.8922 7.55723C34.9628 7.55723 35.0335 7.55723 35.0335 7.62785C35.0335 7.69847 35.0335 7.76909 35.0335 7.83971C34.7509 8.1928 34.3978 8.5459 34.1153 8.89899C33.8327 9.18147 33.4796 9.39332 33.0558 9.39332C32.9851 9.39332 32.8439 9.39332 32.7732 9.39332C33.4089 7.91032 32.9145 7.76909 31.3606 9.11085C31.0075 8.96961 30.5837 8.89899 30.1599 8.68713C29.948 8.61651 29.7361 8.40466 29.6654 8.1928C29.5948 7.91032 29.5948 7.69847 29.8067 7.48661C29.948 7.34537 30.0186 7.13352 30.1599 6.99228C30.3718 6.63918 30.7956 6.56856 31.2193 6.7098Z" fill="#B2B2B2"/>
<path fill-rule="evenodd" clip-rule="evenodd" d="M29.1004 4.09717L30.725 6.63945L29.7361 7.76936L28.8179 4.73274L29.1004 4.09717Z" fill="#9D9D9C"/>
<path fill-rule="evenodd" clip-rule="evenodd" d="M27.8996 4.80283C27.6878 5.50902 27.7584 6.14459 28.0409 6.21521C28.3234 6.28583 28.8885 5.86211 29.1004 5.15592C29.3123 4.44973 29.171 3.81416 28.8885 3.74354C28.5353 3.67293 28.1115 4.16726 27.8996 4.80283Z" fill="#F2B387"/>
<path fill-rule="evenodd" clip-rule="evenodd" d="M32.3495 10.3823C32.4201 10.0998 32.4201 9.88796 32.067 9.67611C31.7844 9.53487 31.29 9.39363 30.7956 9.32301V10.1704C30.9368 10.1704 31.1487 10.1704 31.4313 10.2411C31.7138 10.6648 31.7138 11.0179 31.29 10.8766C31.2194 10.8766 31.2194 10.806 31.1487 10.806C31.0075 10.7354 31.0781 10.7354 31.0781 10.5942C31.0781 10.5235 30.9368 10.5235 30.7956 10.5235V12.6421C31.7844 12.0772 32.2789 10.8766 32.3495 10.3823ZM30.7956 9.32301C30.3718 9.25239 29.8774 9.25239 29.5948 9.39363C28.6766 9.67611 28.3941 8.47558 28.5354 7.48692C28.606 6.85135 28.8885 6.42763 29.171 5.9333L29.0298 5.43896C28.0409 6.21577 27.264 6.63949 27.0521 7.27506C26.487 8.96992 26.3458 12.2184 28.9592 12.9246C29.6655 13.1364 30.3012 12.9952 30.7956 12.7127V10.5942C30.5837 10.5942 30.3012 10.6648 30.2305 10.6648C29.8067 10.5942 29.8774 10.2411 30.3012 10.2411C30.5131 10.2411 30.6543 10.2411 30.7956 10.3117V9.32301Z" fill="#4F2B0C"/>
<path fill-rule="evenodd" clip-rule="evenodd" d="M29.7361 4.59123C31.5019 2.40204 34.3978 2.11957 35.8811 3.24947C35.9517 2.40204 35.316 1.97833 34.7509 1.69585C32.7026 0.636569 29.7361 1.34276 28.9591 3.03762C29.2416 3.32009 29.3829 4.23814 29.7361 4.59123Z" fill="#C6C6C6"/>
<path fill-rule="evenodd" clip-rule="evenodd" d="M27.6877 6.56847C26.9814 6.28599 26.7695 5.08547 27.1933 3.88495C27.6171 2.75504 28.4647 2.04885 29.171 2.33133C29.8773 2.61381 30.0892 3.81433 29.6654 5.01485C29.2416 6.14476 28.3234 6.85095 27.6877 6.56847Z" fill="#575756"/>
<path fill-rule="evenodd" clip-rule="evenodd" d="M27.0521 6.35656C26.3457 6.07408 26.1338 4.87356 26.5576 3.67303C26.9814 2.54313 27.829 1.83694 28.5353 2.11942C29.2417 2.40189 29.4535 3.60242 29.0298 4.80294C28.606 6.00346 27.6877 6.70965 27.0521 6.35656Z" fill="#EF7D00"/>
</g>
<defs>
<clipPath id="clip0">
<rect width="76" height="81" fill="white" transform="translate(0 0.000976562)"/>
</clipPath>
</defs>
</svg>
