<svg width="213" height="46" viewBox="0 0 213 46" fill="none" xmlns="http://www.w3.org/2000/svg">
<path d="M13.226 36.442C9.826 36.442 6.95867 35.354 4.624 33.178C2.312 31.002 1.156 28.1687 1.156 24.678C1.156 21.1647 2.312 18.3313 4.624 16.178C6.95867 14.0247 9.826 12.948 13.226 12.948C17.3513 12.948 20.4793 14.6367 22.61 18.014L18.598 20.19C18.054 19.3287 17.306 18.626 16.354 18.082C15.4247 17.5153 14.382 17.232 13.226 17.232C11.1633 17.232 9.46333 17.9347 8.126 19.34C6.78867 20.7453 6.12 22.5247 6.12 24.678C6.12 26.8313 6.78867 28.6107 8.126 30.016C9.46333 31.4213 11.1633 32.124 13.226 32.124C14.178 32.124 15.096 31.954 15.98 31.614C16.864 31.274 17.5553 30.866 18.054 30.39V27.67H12.07V23.454H22.882V32.158C20.3207 35.014 17.102 36.442 13.226 36.442ZM30.9307 36H26.6127V19.578H30.9307V21.822C31.5427 21.0513 32.3247 20.4167 33.2767 19.918C34.2287 19.4193 35.192 19.17 36.1667 19.17V23.386C35.872 23.318 35.4754 23.284 34.9767 23.284C34.2514 23.284 33.4807 23.4653 32.6647 23.828C31.8487 24.1907 31.2707 24.6327 30.9307 25.154V36ZM41.0067 17.81C40.304 17.81 39.692 17.5607 39.1707 17.062C38.672 16.5407 38.4227 15.9287 38.4227 15.226C38.4227 14.5233 38.672 13.9227 39.1707 13.424C39.692 12.9253 40.304 12.676 41.0067 12.676C41.732 12.676 42.344 12.9253 42.8427 13.424C43.3413 13.9227 43.5907 14.5233 43.5907 15.226C43.5907 15.9287 43.3413 16.5407 42.8427 17.062C42.344 17.5607 41.732 17.81 41.0067 17.81ZM43.1827 36H38.8647V19.578H43.1827V36ZM51.7823 36H47.4643V13.322H51.7823V36ZM60.3819 36H56.0639V13.322H60.3819V36ZM120.672 36H114.62L105.848 13.322H111.356L117.646 30.764L123.902 13.322H129.41L120.672 36ZM133.544 17.81C132.841 17.81 132.229 17.5607 131.708 17.062C131.209 16.5407 130.96 15.9287 130.96 15.226C130.96 14.5233 131.209 13.9227 131.708 13.424C132.229 12.9253 132.841 12.676 133.544 12.676C134.269 12.676 134.881 12.9253 135.38 13.424C135.878 13.9227 136.128 14.5233 136.128 15.226C136.128 15.9287 135.878 16.5407 135.38 17.062C134.881 17.5607 134.269 17.81 133.544 17.81ZM135.72 36H131.402V19.578H135.72V36ZM144.319 36H140.001V13.322H144.319V36ZM152.919 36H148.601V13.322H152.919V36ZM171.379 36H167.061V34.3C165.882 35.7053 164.148 36.408 161.859 36.408C160.385 36.408 159.059 35.932 157.881 34.98C156.725 34.0053 156.147 32.668 156.147 30.968C156.147 29.2 156.713 27.874 157.847 26.99C159.003 26.106 160.34 25.664 161.859 25.664C164.193 25.664 165.927 26.3327 167.061 27.67V25.46C167.061 24.6213 166.732 23.9527 166.075 23.454C165.417 22.9553 164.545 22.706 163.457 22.706C161.666 22.706 160.068 23.352 158.663 24.644L157.031 21.754C158.98 20.0313 161.371 19.17 164.205 19.17C166.313 19.17 168.035 19.6573 169.373 20.632C170.71 21.6067 171.379 23.1933 171.379 25.392V36ZM163.593 33.484C165.202 33.484 166.358 33.008 167.061 32.056V30.016C166.358 29.064 165.202 28.588 163.593 28.588C162.709 28.588 161.972 28.8147 161.383 29.268C160.793 29.6987 160.499 30.2993 160.499 31.07C160.499 31.818 160.793 32.4073 161.383 32.838C161.972 33.2687 162.709 33.484 163.593 33.484ZM182.394 42.664C179.56 42.664 177.203 41.848 175.322 40.216L177.26 37.088C178.484 38.448 180.195 39.128 182.394 39.128C183.618 39.128 184.672 38.7993 185.556 38.142C186.462 37.5073 186.916 36.4533 186.916 34.98V33.314C185.556 35.0367 183.867 35.898 181.85 35.898C179.719 35.898 177.974 35.1727 176.614 33.722C175.276 32.2487 174.608 30.186 174.608 27.534C174.608 24.9047 175.276 22.8533 176.614 21.38C177.974 19.9067 179.719 19.17 181.85 19.17C183.89 19.17 185.578 20.0087 186.916 21.686V19.578H191.268V34.878C191.268 36.374 190.996 37.6547 190.452 38.72C189.93 39.7853 189.216 40.59 188.31 41.134C187.403 41.678 186.462 42.0633 185.488 42.29C184.536 42.5393 183.504 42.664 182.394 42.664ZM183.21 32.056C183.912 32.056 184.615 31.8747 185.318 31.512C186.02 31.1493 186.553 30.7073 186.916 30.186V24.882C186.553 24.338 186.02 23.896 185.318 23.556C184.638 23.1933 183.935 23.012 183.21 23.012C181.963 23.012 180.954 23.42 180.184 24.236C179.436 25.052 179.062 26.1513 179.062 27.534C179.062 28.9167 179.436 30.016 180.184 30.832C180.954 31.648 181.963 32.056 183.21 32.056ZM203.268 36.408C200.73 36.408 198.633 35.6147 196.978 34.028C195.324 32.4413 194.496 30.356 194.496 27.772C194.496 25.3467 195.29 23.3067 196.876 21.652C198.486 19.9973 200.526 19.17 202.996 19.17C205.444 19.17 207.428 20.0087 208.946 21.686C210.465 23.3407 211.224 25.5167 211.224 28.214V29.166H199.018C199.154 30.254 199.642 31.1607 200.48 31.886C201.319 32.6113 202.407 32.974 203.744 32.974C204.47 32.974 205.252 32.8267 206.09 32.532C206.952 32.2373 207.632 31.8407 208.13 31.342L210.034 34.13C208.38 35.6487 206.124 36.408 203.268 36.408ZM207.042 26.242C206.974 25.3127 206.6 24.474 205.92 23.726C205.263 22.978 204.288 22.604 202.996 22.604C201.772 22.604 200.82 22.978 200.14 23.726C199.46 24.4513 199.064 25.29 198.95 26.242H207.042Z" fill="#222222"/>
<path d="M94.8125 17.6415L93.0973 14.9913L92.8692 18.1399C92.7375 19.9588 91.6086 21.0714 90.5962 21.5061C89.5045 21.9748 88.4707 21.7689 87.9626 20.9815C87.0777 19.6107 87.5113 18.802 88.421 17.3742C89.4106 15.8212 90.7659 13.6942 89.5581 9.85148C88.652 6.96825 86.8833 4.55196 84.301 2.66962C83.6148 2.16949 82.884 1.72062 82.1289 1.33545L79.5105 0L80.6771 2.69796C81.3776 4.31775 82.4012 7.56506 81.3871 11.1144C80.7706 13.2725 79.0408 15.0086 77.3679 16.6875C75.0037 19.0605 72.3239 21.75 72.3239 26.0475C72.3239 29.3826 73.5576 32.0477 75.9906 33.9689C77.6637 35.2898 79.4521 35.9055 79.7349 35.9719L79.8543 35.9999H92.1205L92.4016 35.7907C95.5104 33.477 97.2637 30.6763 97.6128 27.4663C98.058 23.3707 96.0495 19.5528 94.8125 17.6415ZM86.9237 33.8842H84.2744C83.8897 33.528 83.3914 32.9371 83.3818 32.4586C83.3752 32.1264 83.7095 31.7868 83.9911 31.5604C85.2321 30.5627 85.9185 29.4569 86.0896 28.1794C86.094 28.146 86.0981 28.1125 86.1019 28.0789C86.8645 28.6906 87.5221 29.4855 87.8151 30.3883C88.1906 31.5452 87.8904 32.7193 86.9237 33.8842ZM95.5093 27.2377C95.2365 29.7462 93.8589 31.9808 91.4134 33.884H89.4459C90.1346 32.5342 90.274 31.1102 89.8276 29.7349C89.1991 27.7988 87.3753 25.9831 85.1812 25.109L82.997 24.2388L83.7945 26.4506C83.9867 26.9838 84.0515 27.4574 83.9925 27.8984C83.8957 28.6217 83.4739 29.2611 82.6655 29.9111C82.0142 30.4348 81.2428 31.309 81.2665 32.5007C81.2765 33.0022 81.421 33.4687 81.6282 33.8839H80.1466C79.7537 33.7465 78.5166 33.2671 77.302 32.308C75.4028 30.8084 74.4399 28.7021 74.4399 26.0473C74.4399 22.6239 76.5903 20.4656 78.867 18.1806C80.7294 16.3115 82.6551 14.3788 83.4218 11.6954C84.1591 9.11461 83.9902 6.68805 83.5618 4.7667C85.4955 6.3142 86.8325 8.23549 87.5398 10.4859C88.4521 13.3884 87.5702 14.7721 86.6366 16.2373C85.7447 17.6371 84.5231 19.5542 86.185 22.1289C86.7167 22.9525 87.5428 23.531 88.5115 23.758C89.4437 23.9762 90.4531 23.87 91.431 23.4503C92.6297 22.9357 93.5958 22.0312 94.2185 20.8976C95.5937 23.7904 95.6399 26.0366 95.5093 27.2377Z" fill="url(#paint0_linear)"/>
<defs>
<linearGradient id="paint0_linear" x1="85" y1="0" x2="85" y2="35.9999" gradientUnits="userSpaceOnUse">
<stop stop-color="#FFB800"/>
<stop offset="1" stop-color="#FF0000"/>
</linearGradient>
</defs>
</svg>
