<svg width="97" height="97" viewBox="0 0 97 97" fill="none" xmlns="http://www.w3.org/2000/svg">
<path d="M48.5 23.1113C44.5825 23.1113 41.3955 26.2983 41.3955 30.2158C41.3955 34.1333 44.5825 37.3203 48.5 37.3203C52.4175 37.3203 55.6045 34.1333 55.6045 30.2158C55.6045 26.2983 52.4175 23.1113 48.5 23.1113ZM48.5 34.4785C46.1495 34.4785 44.2373 32.5662 44.2373 30.2158C44.2373 27.8655 46.1495 25.9531 48.5 25.9531C50.8504 25.9531 52.7627 27.8655 52.7627 30.2158C52.7627 32.5662 50.8504 34.4785 48.5 34.4785Z" fill="#222222"/>
<path d="M96.5495 43.3379L51.4108 1.14649C49.7784 -0.379558 47.2214 -0.379558 45.5891 1.14649L24.1553 21.181V13.1652C24.1553 12.3803 23.5191 11.7443 22.7344 11.7443H11.3672C10.5825 11.7443 9.94629 12.3803 9.94629 13.1652V34.4624L0.45052 43.3379C0.163119 43.6067 0 43.9826 0 44.3761V52.1558C0 52.7217 0.3359 53.2338 0.855002 53.4592C1.3741 53.6843 1.9777 53.5803 2.39109 53.194L5.8325 49.9773C6.10551 51.1477 6.74055 52.1806 7.61374 52.9504C6.43155 53.9925 5.68359 55.5167 5.68359 57.2131C5.68359 58.9094 6.43155 60.4336 7.61393 61.4757C6.43155 62.5179 5.68359 64.0421 5.68359 65.7384C5.68359 67.4348 6.43155 68.959 7.61393 70.0011C6.43155 71.0433 5.68359 72.5675 5.68359 74.2638C5.68359 75.9602 6.43155 77.4844 7.61393 78.5265C6.43155 79.5687 5.68359 81.0929 5.68359 82.7892C5.68359 84.4856 6.43155 86.0097 7.61393 87.0519C6.43155 88.0941 5.68359 89.6183 5.68359 91.3146C5.68359 94.4486 8.23325 96.9982 11.3672 96.9982H85.6328C88.7667 96.9982 91.3164 94.4486 91.3164 91.3146C91.3164 89.6183 90.5684 88.0941 89.3861 87.0519C90.5684 86.0097 91.3164 84.4856 91.3164 82.7892C91.3164 81.0929 90.5684 79.5687 89.3861 78.5265C90.5684 77.4844 91.3164 75.9602 91.3164 74.2638C91.3164 72.5675 90.5684 71.0433 89.3861 70.0011C90.5684 68.959 91.3164 67.4348 91.3164 65.7384C91.3164 64.0421 90.5684 62.5179 89.3861 61.4757C90.5684 60.4336 91.3164 58.9094 91.3164 57.2131C91.3164 55.5167 90.5684 53.9925 89.3861 52.9504C90.2593 52.1806 90.8943 51.1477 91.1673 49.9773L94.6087 53.194C95.0223 53.5803 95.6257 53.6845 96.1448 53.4592C96.6639 53.234 96.9998 52.7217 96.9998 52.1558V44.3761C97 43.9826 96.8369 43.6067 96.5495 43.3379ZM12.7881 14.5861H21.3135V23.8373L12.7881 31.8061V14.5861ZM11.3672 94.1564C9.80022 94.1564 8.52539 92.8816 8.52539 91.3146C8.52539 89.7477 9.80022 88.4728 11.3672 88.4728C12.9342 88.4728 14.209 89.7477 14.209 91.3146C14.209 92.8816 12.9342 94.1564 11.3672 94.1564ZM11.3672 85.631C9.80022 85.631 8.52539 84.3562 8.52539 82.7892C8.52539 81.2223 9.80022 79.9474 11.3672 79.9474C12.9342 79.9474 14.209 81.2223 14.209 82.7892C14.209 84.3562 12.9342 85.631 11.3672 85.631ZM11.3672 77.1056C9.80022 77.1056 8.52539 75.8308 8.52539 74.2638C8.52539 72.6969 9.80022 71.422 11.3672 71.422C12.9342 71.422 14.209 72.6969 14.209 74.2638C14.209 75.8308 12.9342 77.1056 11.3672 77.1056ZM11.3672 68.5802C9.80022 68.5802 8.52539 67.3054 8.52539 65.7384C8.52539 64.1715 9.80022 62.8966 11.3672 62.8966C12.9342 62.8966 14.209 64.1715 14.209 65.7384C14.209 67.3054 12.9342 68.5802 11.3672 68.5802ZM11.3672 60.0549C9.80022 60.0549 8.52539 58.78 8.52539 57.2131C8.52539 55.6461 9.80022 54.3713 11.3672 54.3713C12.9342 54.3713 14.209 55.6461 14.209 57.2131C14.209 58.78 12.9342 60.0549 11.3672 60.0549ZM11.3672 51.5295C9.80022 51.5295 8.52539 50.2546 8.52539 48.6877C8.52539 47.9117 8.83856 47.208 9.3444 46.6948L9.45049 46.5955C9.95652 46.1316 10.6281 45.8459 11.3672 45.8459C12.9342 45.8459 14.209 47.1207 14.209 48.6877C14.209 50.2546 12.9342 51.5295 11.3672 51.5295ZM13.293 43.0041L48.5 10.0959L83.707 43.0041H13.293ZM35.7119 94.1564H16.2861C16.7713 93.3198 17.0508 92.3494 17.0508 91.3146C17.0508 90.2798 16.7713 89.3094 16.2861 88.4728H35.7119V94.1564ZM35.7119 85.631H16.2861C16.7713 84.7944 17.0508 83.824 17.0508 82.7892C17.0508 81.7544 16.7713 80.7841 16.2861 79.9474H35.7119V85.631ZM35.7119 77.1056H16.2861C16.7713 76.269 17.0508 75.2986 17.0508 74.2638C17.0508 73.229 16.7713 72.2587 16.2861 71.422H35.7119V77.1056ZM35.7119 68.5802H16.2861C16.7713 67.7436 17.0508 66.7732 17.0508 65.7384C17.0508 64.7037 16.7713 63.7333 16.2861 62.8966H35.7119V68.5802ZM58.4463 94.1564H38.5537V62.8966H58.4463V94.1564ZM80.7139 94.1564H61.2881V88.4728H80.7139C80.2287 89.3094 79.9492 90.2798 79.9492 91.3146C79.9492 92.3494 80.2287 93.3196 80.7139 94.1564ZM80.7139 85.631H61.2881V79.9474H80.7139C80.2287 80.7841 79.9492 81.7544 79.9492 82.7892C79.9492 83.824 80.2287 84.7942 80.7139 85.631ZM80.7139 77.1056H61.2881V71.422H80.7139C80.2287 72.2587 79.9492 73.229 79.9492 74.2638C79.9492 75.2986 80.2287 76.2688 80.7139 77.1056ZM80.7139 68.5802H61.2881V62.8966H80.7139C80.2287 63.7333 79.9492 64.7037 79.9492 65.7384C79.9492 66.7732 80.2287 67.7434 80.7139 68.5802ZM80.7139 60.0549H16.2861C16.7713 59.2182 17.0508 58.2478 17.0508 57.2131C17.0508 56.1783 16.7713 55.2079 16.2861 54.3713H23.5396C24.3243 54.3713 24.9604 53.7353 24.9604 52.9504C24.9604 52.1655 24.3243 51.5295 23.5396 51.5295H16.2861C16.7713 50.6928 17.0508 49.7225 17.0508 48.6877C17.0508 47.6529 16.7713 46.6825 16.2861 45.8459H47.0791V51.5295H29.2231C28.4384 51.5295 27.8022 52.1655 27.8022 52.9504C27.8022 53.7353 28.4384 54.3713 29.2231 54.3713H80.7139C80.2287 55.2079 79.9492 56.1783 79.9492 57.2131C79.9492 58.2478 80.2287 59.218 80.7139 60.0549ZM80.7139 51.5295H49.9209V45.8459H80.7139C80.2287 46.6825 79.9492 47.6529 79.9492 48.6877C79.9492 49.7225 80.2287 50.6926 80.7139 51.5295ZM85.6328 94.1564C84.0658 94.1564 82.791 92.8816 82.791 91.3146C82.791 89.7477 84.0658 88.4728 85.6328 88.4728C87.1998 88.4728 88.4746 89.7477 88.4746 91.3146C88.4746 92.8816 87.1998 94.1564 85.6328 94.1564ZM85.6328 85.631C84.0658 85.631 82.791 84.3562 82.791 82.7892C82.791 81.2223 84.0658 79.9474 85.6328 79.9474C87.1998 79.9474 88.4746 81.2223 88.4746 82.7892C88.4746 84.3562 87.1998 85.631 85.6328 85.631ZM85.6328 77.1056C84.0658 77.1056 82.791 75.8308 82.791 74.2638C82.791 72.6969 84.0658 71.422 85.6328 71.422C87.1998 71.422 88.4746 72.6969 88.4746 74.2638C88.4746 75.8308 87.1998 77.1056 85.6328 77.1056ZM85.6328 68.5802C84.0658 68.5802 82.791 67.3054 82.791 65.7384C82.791 64.1715 84.0658 62.8966 85.6328 62.8966C87.1998 62.8966 88.4746 64.1715 88.4746 65.7384C88.4746 67.3054 87.1998 68.5802 85.6328 68.5802ZM85.6328 60.0549C84.0658 60.0549 82.791 58.78 82.791 57.2131C82.791 55.6461 84.0658 54.3713 85.6328 54.3713C87.1998 54.3713 88.4746 55.6461 88.4746 57.2131C88.4746 58.78 87.1998 60.0549 85.6328 60.0549ZM88.4746 48.6877C88.4746 50.2546 87.1998 51.5295 85.6328 51.5295C84.0658 51.5295 82.791 50.2546 82.791 48.6877C82.791 47.1207 84.0658 45.8459 85.6328 45.8459C86.3711 45.8459 87.0423 46.1312 87.5482 46.5944L87.6558 46.695C88.1614 47.2082 88.4746 47.9119 88.4746 48.6877ZM94.1582 48.8828L49.4704 7.11256C49.1974 6.85736 48.8486 6.72967 48.5 6.72967C48.1514 6.72967 47.8028 6.85736 47.5296 7.11256L2.8418 48.8828V44.993L47.5298 3.22251C48.0741 2.71402 48.9261 2.71421 49.4702 3.22251L94.1582 44.993V48.8828Z" fill="#222222"/>
<path d="M54.1836 79.9473C54.9683 79.9473 55.6045 79.3111 55.6045 78.5264C55.6045 77.7416 54.9683 77.1055 54.1836 77.1055C53.3989 77.1055 52.7627 77.7416 52.7627 78.5264C52.7627 79.3111 53.3989 79.9473 54.1836 79.9473Z" fill="#222222"/>
</svg>
