<svg width="97" height="97" viewBox="0 0 97 97" fill="none" xmlns="http://www.w3.org/2000/svg">
<g clip-path="url(#clip0)">
<path d="M96.8217 23.0015C96.4878 21.76 95.6733 20.7016 94.5589 20.0599C93.4437 19.4151 92.1178 19.2407 90.8739 19.5745C89.6316 19.9092 88.5732 20.7229 87.9316 21.8373L87.1234 23.2438C86.3554 22.8026 85.3744 23.0622 84.9253 23.8262L80.8196 30.8245L79.4131 30.0163C79.0406 29.8009 78.5971 29.7425 78.1819 29.8546C77.766 29.9674 77.4124 30.2405 77.1985 30.6146C76.7605 31.3873 77.0272 32.3691 77.7967 32.8127L79.2032 33.6209L65.4639 57.4303L62.0693 66.4988L60.4529 69.5209C59.5066 71.1672 59.6076 73.2138 60.7118 74.7583L57.0749 79.2192L56.0568 76.666C55.5974 75.5279 54.5343 74.7481 53.3117 74.6526C52.0884 74.5563 50.9164 75.1609 50.2857 76.2129L49.7041 77.1987L49.1547 70.7331C49.0285 69.2036 47.8438 67.9739 46.3205 67.7892C44.7965 67.6053 43.3537 68.5185 42.8668 69.9739L38.8905 81.9027C38.6127 82.7464 39.0673 83.6556 39.9086 83.9397C40.0665 84.0131 40.2362 84.0573 40.4098 84.0684C41.1044 84.0707 41.7231 83.628 41.9457 82.9697L45.9054 71.041L46.4713 77.6028C46.5881 79.0029 47.5944 80.1671 48.9629 80.4844C50.3315 80.8017 51.7474 80.1987 52.468 78.9935L53.0663 78.0069L54.0686 80.5451C54.494 81.6146 55.4561 82.3778 56.595 82.5475C57.7339 82.7172 58.8768 82.2681 59.5966 81.3691L63.3629 76.6012C63.7796 76.7102 64.209 76.7646 64.6399 76.763C66.3723 76.7765 67.9808 75.8641 68.8585 74.37L70.4748 71.6708L76.6334 64.1871L90.5179 40.0864L91.9244 40.8946C92.2993 41.1093 92.5724 41.4637 92.6836 41.8812C92.7957 42.2956 92.7373 42.7375 92.5226 43.1093L86.0571 54.3111C85.8132 54.6789 85.7303 55.1304 85.8282 55.5613C85.9261 55.9915 86.1952 56.3632 86.574 56.5897C86.9466 56.806 87.3901 56.8644 87.8053 56.7523C88.2212 56.6394 88.5748 56.3664 88.7887 55.9923L95.2542 44.7904C95.8991 43.6752 96.0735 42.3492 95.7388 41.1054C95.4042 39.8631 94.5905 38.8047 93.4761 38.163L92.0696 37.3548L96.1106 30.3557C96.5518 29.5878 96.2921 28.6075 95.5289 28.1577L96.3371 26.7512C96.9993 25.6186 97.1745 24.2658 96.8217 23.0015ZM90.7279 23.4537C90.9418 23.0796 91.2969 22.8057 91.7144 22.6944C92.1296 22.5918 92.5684 22.6495 92.9425 22.8562C93.3174 23.0701 93.5905 23.4253 93.7026 23.842C93.8052 24.2572 93.7476 24.696 93.5408 25.0701L92.7326 26.4765L89.9197 24.8602L90.7279 23.4537ZM68.6967 68.584L67.8885 68.1152L65.4962 66.7245L67.7914 60.5826L72.8829 63.5241L68.6967 68.584ZM63.8475 73.2548C63.1648 72.7789 62.9548 71.8634 63.3629 71.1372L64.1711 69.7316L66.9832 71.348L66.175 72.7378C65.9485 73.1309 65.5681 73.4103 65.1253 73.5089C64.6825 73.6068 64.2192 73.5153 63.8475 73.2548ZM74.7258 60.8738L69.1331 57.641L82.0642 35.2373L87.6569 38.47L74.7258 60.8738ZM89.2733 35.6737L83.6806 32.4409L86.9134 26.8483L92.5061 30.0811L89.2733 35.6737Z" fill="#222222"/>
<path d="M25.5064 72.4468L19.7851 78.1531L16.3581 74.7261C15.7275 74.0995 14.7094 74.0995 14.0788 74.7261C13.7725 75.03 13.6005 75.4428 13.6005 75.8737C13.6005 76.3046 13.7725 76.7182 14.0788 77.0213L17.5057 80.4482C18.1118 81.0496 18.9311 81.3866 19.7851 81.3858C20.6438 81.3906 21.4701 81.0536 22.0802 80.4482L27.7857 74.7261C28.335 74.0845 28.2979 73.1287 27.7013 72.532C27.1038 71.9345 26.148 71.8974 25.5064 72.4468Z" fill="#222222"/>
<path d="M6.46552 76.7945C6.46552 84.3832 12.617 90.5339 20.2048 90.5339C27.7927 90.5339 33.9442 84.3832 33.9442 76.7945C33.9442 75.9019 33.2204 75.1782 32.3278 75.1782C31.4351 75.1782 30.7114 75.9019 30.7114 76.7945C30.7114 82.5971 26.0074 87.3011 20.2048 87.3011C14.4022 87.3011 9.6983 82.5971 9.6983 76.7945C9.6983 70.992 14.4022 66.288 20.2048 66.288C22.4795 66.2817 24.6933 67.0196 26.5086 68.3898C27.2229 68.9257 28.2363 68.7805 28.7714 68.0662C29.3073 67.3519 29.1629 66.3393 28.4486 65.8034C24.2853 62.6811 18.7147 62.1792 14.0605 64.5059C9.40548 66.8334 6.46552 71.591 6.46552 76.7945Z" fill="#222222"/>
<path d="M58.1901 12.9471C59.0828 12.9471 59.8065 12.2242 59.8065 11.3307C59.8065 10.4381 59.0828 9.71436 58.1901 9.71436H16.164C15.2713 9.71436 14.5476 10.4381 14.5476 11.3307V17.7963C14.5476 18.6897 15.2713 19.4127 16.164 19.4127H58.1901C59.0828 19.4127 59.8065 18.6897 59.8065 17.7963C59.8065 16.9037 59.0828 16.1799 58.1901 16.1799H17.7804V12.9471H58.1901Z" fill="#222222"/>
<path d="M21.0131 22.6455C20.1204 22.6455 19.3967 23.3693 19.3967 24.2619C19.3967 25.1553 20.1204 25.8783 21.0131 25.8783H53.3409C54.2335 25.8783 54.9573 25.1553 54.9573 24.2619C54.9573 23.3693 54.2335 22.6455 53.3409 22.6455H21.0131Z" fill="#222222"/>
<path d="M63.0393 33.9604H27.4787C26.5861 33.9604 25.8623 34.6842 25.8623 35.5768C25.8623 36.4703 26.5861 37.1932 27.4787 37.1932H63.0393C63.932 37.1932 64.6557 36.4703 64.6557 35.5768C64.6557 34.6842 63.932 33.9604 63.0393 33.9604Z" fill="#222222"/>
<path d="M46.8754 45.2751C46.8754 44.3824 46.1516 43.6587 45.259 43.6587H12.9311C12.0385 43.6587 11.3148 44.3824 11.3148 45.2751C11.3148 46.1685 12.0385 46.8915 12.9311 46.8915H45.259C46.1516 46.8915 46.8754 46.1685 46.8754 45.2751Z" fill="#222222"/>
<path d="M63.0392 43.6587H51.7245C50.8318 43.6587 50.1081 44.3824 50.1081 45.2751C50.1081 46.1685 50.8318 46.8915 51.7245 46.8915H63.0392C63.9319 46.8915 64.6556 46.1685 64.6556 45.2751C64.6556 44.3824 63.9319 43.6587 63.0392 43.6587Z" fill="#222222"/>
<path d="M29.0951 54.9735C29.9877 54.9735 30.7115 54.2506 30.7115 53.3571C30.7115 52.4645 29.9877 51.7407 29.0951 51.7407H12.9311C12.0385 51.7407 11.3148 52.4645 11.3148 53.3571C11.3148 54.2506 12.0385 54.9735 12.9311 54.9735H29.0951Z" fill="#222222"/>
<path d="M35.5606 54.9735H46.8754C47.768 54.9735 48.4918 54.2506 48.4918 53.3571C48.4918 52.4645 47.768 51.7407 46.8754 51.7407H35.5606C34.668 51.7407 33.9442 52.4645 33.9442 53.3571C33.9442 54.2506 34.668 54.9735 35.5606 54.9735Z" fill="#222222"/>
<path d="M72.7376 74.3701C71.845 74.3701 71.1212 75.0939 71.1212 75.9865V92.1504C71.1212 93.0439 70.3975 93.7668 69.5048 93.7668H4.84917C3.95653 93.7668 3.23278 93.0439 3.23278 92.1504V4.86529C3.23278 3.97264 3.95653 3.2489 4.84917 3.2489H69.5048C70.3975 3.2489 71.1212 3.97264 71.1212 4.86529V35.2216C71.1212 36.1142 71.845 36.8379 72.7376 36.8379C73.6302 36.8379 74.354 36.1142 74.354 35.2216V4.86529C74.354 2.18735 72.1828 0.0161133 69.5048 0.0161133H4.84917C2.17124 0.0161133 0 2.18735 0 4.86529V92.1504C0 94.8291 2.17124 96.9996 4.84917 96.9996H69.5048C72.1828 96.9996 74.354 94.8291 74.354 92.1504V75.9865C74.354 75.0939 73.6302 74.3701 72.7376 74.3701Z" fill="#222222"/>
</g>
<defs>
<clipPath id="clip0">
<rect width="97" height="97" fill="white"/>
</clipPath>
</defs>
</svg>
