<svg width="97" height="97" viewBox="0 0 97 97" fill="none" xmlns="http://www.w3.org/2000/svg">
<path d="M78.4349 28.1812C79.4811 28.1812 80.3295 27.333 80.3295 26.2866V5.68359C80.3295 2.54966 77.7798 0 74.6459 0H5.68492C2.55099 0 0.00132751 2.54966 0.00132751 5.68359V91.3164C0.00132751 94.4503 2.55099 97 5.68492 97H74.6459C77.7798 97 80.3295 94.4503 80.3295 91.3164V77.359C80.3295 76.3127 79.4811 75.4645 78.4349 75.4645C77.3888 75.4645 76.5404 76.3127 76.5404 77.359V91.3164C76.5404 92.3611 75.6905 93.2109 74.6459 93.2109H5.68492C4.64028 93.2109 3.79039 92.3611 3.79039 91.3164V5.68359C3.79039 4.63895 4.64028 3.78906 5.68492 3.78906H74.6459C75.6905 3.78906 76.5404 4.63895 76.5404 5.68359V26.2866C76.5404 27.333 77.3888 28.1812 78.4349 28.1812Z" fill="#222222"/>
<path d="M40.1654 10.2305C30.5546 10.2305 22.7357 18.0494 22.7357 27.6602C22.7357 32.646 24.8405 37.1489 28.2075 40.3287C28.2706 40.3961 28.3376 40.46 28.4109 40.5181C31.5125 43.356 35.6401 45.0896 40.1652 45.0896C44.6903 45.0896 48.8179 43.3558 51.9194 40.5181C51.9927 40.46 52.0598 40.3959 52.1229 40.3287C55.4902 37.1489 57.595 32.646 57.595 27.6602C57.595 18.0494 49.7761 10.2305 40.1654 10.2305ZM40.1654 41.3008C37.0718 41.3008 34.2167 40.2641 31.9259 38.5219C33.591 35.5693 36.6982 33.7227 40.1654 33.7227C43.6325 33.7227 46.7398 35.5693 48.4049 38.5219C46.1138 40.2641 43.2589 41.3008 40.1654 41.3008ZM37.1341 26.9023V25.6709C37.1341 23.9995 38.494 22.6396 40.1654 22.6396C41.8367 22.6396 43.1966 23.9995 43.1966 25.6709V26.9023C43.1966 28.5737 41.8367 29.9336 40.1654 29.9336C38.494 29.9336 37.1341 28.5737 37.1341 26.9023ZM51.1423 35.7466C49.7451 33.6743 47.8087 32.0627 45.5604 31.0677C46.4527 29.9145 46.9857 28.4699 46.9857 26.9023V25.6709C46.9857 21.9101 43.9262 18.8506 40.1654 18.8506C36.4045 18.8506 33.3451 21.9101 33.3451 25.6709V26.9023C33.3451 28.4699 33.878 29.9145 34.7703 31.0677C32.5221 32.0627 30.5857 33.6743 29.1885 35.7466C27.5158 33.482 26.5247 30.6852 26.5247 27.6602C26.5247 20.1387 32.6439 14.0195 40.1654 14.0195C47.6868 14.0195 53.806 20.1387 53.806 27.6602C53.806 30.6852 52.815 33.482 51.1423 35.7466Z" fill="#222222"/>
<path d="M50.3958 82.9805H40.1654C39.1192 82.9805 38.2708 83.8287 38.2708 84.875C38.2708 85.9213 39.1192 86.7695 40.1654 86.7695H50.3958C51.442 86.7695 52.2904 85.9213 52.2904 84.875C52.2904 83.8287 51.442 82.9805 50.3958 82.9805Z" fill="#222222"/>
<path d="M50.3958 72.3711H23.4935C22.4473 72.3711 21.599 73.2193 21.599 74.2656C21.599 75.312 22.4473 76.1602 23.4935 76.1602H50.3958C51.442 76.1602 52.2904 75.312 52.2904 74.2656C52.2904 73.2193 51.442 72.3711 50.3958 72.3711Z" fill="#222222"/>
<path d="M50.3958 61.7617H23.4935C22.4473 61.7617 21.599 62.6099 21.599 63.6562C21.599 64.7026 22.4473 65.5508 23.4935 65.5508H50.3958C51.442 65.5508 52.2904 64.7026 52.2904 63.6562C52.2904 62.6099 51.442 61.7617 50.3958 61.7617Z" fill="#222222"/>
<path d="M16.7412 51.7074C16.389 51.3551 15.9003 51.1523 15.4001 51.1523C14.9017 51.1523 14.4129 51.3551 14.0607 51.7074C13.7083 52.0598 13.5056 52.5486 13.5056 53.0469C13.5056 53.5451 13.7081 54.0339 14.0607 54.3863C14.4149 54.7387 14.9017 54.9414 15.4001 54.9414C15.9003 54.9414 16.3872 54.7387 16.7412 54.3863C17.0936 54.0339 17.2965 53.5451 17.2965 53.0469C17.2965 52.5486 17.0938 52.0598 16.7412 51.7074Z" fill="#222222"/>
<path d="M16.7412 62.3168C16.3872 61.9644 15.9003 61.7617 15.4001 61.7617C14.9017 61.7617 14.4149 61.9644 14.0607 62.3168C13.7083 62.6692 13.5056 63.158 13.5056 63.6562C13.5056 64.1545 13.7081 64.6433 14.0607 64.9957C14.4149 65.3481 14.9017 65.5508 15.4001 65.5508C15.9003 65.5508 16.3872 65.3481 16.7412 64.9957C17.0936 64.6433 17.2965 64.1545 17.2965 63.6562C17.2965 63.158 17.0938 62.6692 16.7412 62.3168Z" fill="#222222"/>
<path d="M16.7412 72.9262C16.3872 72.5738 15.9003 72.3711 15.4001 72.3711C14.9017 72.3711 14.4149 72.5738 14.0607 72.9262C13.7083 73.2786 13.5056 73.7674 13.5056 74.2656C13.5056 74.7639 13.7081 75.2527 14.0607 75.6051C14.4129 75.9574 14.9017 76.1602 15.4001 76.1602C15.9003 76.1602 16.389 75.9574 16.7412 75.6051C17.0936 75.2527 17.2965 74.7639 17.2965 74.2656C17.2965 73.7674 17.0938 73.2786 16.7412 72.9262Z" fill="#222222"/>
<path d="M50.3958 51.1523H23.4935C22.4473 51.1523 21.599 52.0005 21.599 53.0469C21.599 54.0932 22.4473 54.9414 23.4935 54.9414H50.3958C51.442 54.9414 52.2904 54.0932 52.2904 53.0469C52.2904 52.0005 51.442 51.1523 50.3958 51.1523Z" fill="#222222"/>
<path d="M93.0219 24.6895C91.1814 23.6269 89.0371 23.3446 86.9838 23.8946C84.9309 24.4448 83.2149 25.7615 82.1524 27.602L58.3112 68.8958C58.1807 69.1222 58.0981 69.3732 58.0691 69.6329L56.3909 84.6649C56.3076 85.4129 56.6747 86.1394 57.3265 86.5159C57.6207 86.6856 57.9475 86.7697 58.2735 86.7697C58.6699 86.7697 59.0647 86.6456 59.3972 86.4007L71.576 77.4312C71.7865 77.2762 71.9627 77.0794 72.0932 76.853L95.9342 35.5592C98.128 31.7596 96.8216 26.8834 93.0219 24.6895ZM60.637 80.7817L61.5134 72.9323L66.9965 76.098L60.637 80.7817ZM69.7591 73.3176L62.54 69.1496L81.672 36.0124L88.8911 40.1804L69.7591 73.3176ZM92.6528 33.6645L90.7854 36.899L83.5663 32.7311L85.4337 29.4965C85.9904 28.5324 86.8891 27.8428 87.9645 27.5546C89.0402 27.2663 90.1632 27.4144 91.1272 27.9711C92.0913 28.5277 92.7809 29.4264 93.0691 30.5018C93.3572 31.5771 93.2095 32.7004 92.6528 33.6645Z" fill="#222222"/>
</svg>
