<svg width="97" height="97" viewBox="0 0 97 97" fill="none" xmlns="http://www.w3.org/2000/svg">
<path d="M88.4249 65.6768L68.8387 61.3262V58.2109C71.8172 56.2629 74.1503 53.4188 75.4657 50.0629H79.7903C83.2417 50.0629 86.0484 47.2563 86.0484 43.8048V32.8532C86.0484 30.5469 84.781 28.5508 82.9193 27.4653V20.6236C82.9193 17.2157 80.8827 14.1791 77.7881 12.8667L77.4153 12.1203C73.6873 4.66368 66.1917 0.03125 57.8542 0.03125C45.7949 0.0327779 35.9839 9.84385 35.9839 21.9032V27.4668C34.1222 28.5523 32.8548 30.5485 32.8548 32.8548V43.8064C32.8548 47.2578 35.6615 50.0644 39.1129 50.0644H43.4375C44.7529 53.4204 47.086 56.2644 50.0645 58.2125V61.3277L30.4783 65.6783C25.4295 66.7997 21.9032 71.1976 21.9032 76.3686V96.9999H97V76.3686C97 71.1976 93.4737 66.7997 88.4249 65.6768ZM70.184 64.8303L67.8593 74.128L61.9061 70.161L67.773 64.294L70.184 64.8303ZM57.6052 81.3548H61.2995L63.8021 93.8709H55.1026L57.6052 81.3548ZM61.3591 78.2257H57.5441L56.5418 74.222L59.4516 72.2839L62.3599 74.2235L61.3591 78.2257ZM82.9193 43.8064C82.9193 45.5321 81.516 46.9354 79.7903 46.9354H76.3626C76.5505 45.9186 76.6613 44.8766 76.6613 43.8064V29.7257H79.7903C81.516 29.7257 82.9193 31.1291 82.9193 32.8548V43.8064ZM39.1129 21.9032C39.1129 11.5696 47.5206 3.16181 57.8542 3.16181C64.9977 3.16181 71.4215 7.13116 74.6163 13.5221L75.5536 15.393L76.1685 15.5985C78.3335 16.3212 79.7903 18.341 79.7903 20.6266V26.5967H76.6613V21.9032H73.5322V25.5952C72.3665 26.1918 71.093 26.5264 69.7806 26.5745C70.5018 25.9176 71.1511 25.1697 71.7049 24.3363L69.1015 22.6006C67.4934 25.0131 64.838 26.4745 61.955 26.5776C62.6777 25.9191 63.327 25.1697 63.8824 24.3363L61.2789 22.6006C59.6708 25.0131 57.0154 26.4745 54.1324 26.5776C54.8551 25.9191 55.5044 25.1697 56.0598 24.3363L53.4563 22.6006C51.7887 25.1025 48.9958 26.5967 45.989 26.5967H45.371V21.9032H42.2419V26.5967H39.1129V21.9032ZM39.1129 46.9354C37.3872 46.9354 35.9839 45.5321 35.9839 43.8064V32.8548C35.9839 31.1291 37.3872 29.7257 39.1129 29.7257H42.2419V43.8064C42.2419 44.8766 42.3527 45.9186 42.5406 46.9354H39.1129ZM45.371 43.8064V29.7257H45.989C47.9897 29.7257 49.9171 29.2315 51.629 28.33V29.7257H53.8116C55.8123 29.7257 57.7396 29.2315 59.4516 28.33V29.7257H61.6341C63.6348 29.7257 65.5622 29.2315 67.2742 28.33V29.7257H69.4567C70.8585 29.7257 72.229 29.4553 73.5322 28.987V43.8064C73.5322 44.8827 73.3993 45.9278 73.1694 46.9354H65.4201C64.7723 45.1188 63.0512 43.8064 61.0146 43.8064H57.8856C55.2981 43.8064 53.192 45.9125 53.192 48.4999C53.192 51.0873 55.2981 53.1935 57.8856 53.1935H61.0146C63.0512 53.1935 64.7723 51.8811 65.4201 50.0644H72.0456C69.7371 54.6923 64.9648 57.887 59.4516 57.887C51.6871 57.887 45.371 51.5709 45.371 43.8064ZM62.5806 48.4999C62.5806 49.3616 61.8793 50.0644 61.0161 50.0644H57.8871C57.0238 50.0644 56.3226 49.3616 56.3226 48.4999C56.3226 47.6382 57.0238 46.9354 57.8871 46.9354H61.0161C61.8793 46.9354 62.5806 47.6382 62.5806 48.4999ZM59.4516 61.0161C61.6609 61.0161 63.7662 60.5829 65.7097 59.8205V61.9328L59.4516 68.1908L53.1935 61.9328V59.8205C55.137 60.5829 57.2423 61.0161 59.4516 61.0161ZM51.1302 64.294L56.9971 70.161L51.0439 74.128L48.7192 64.8303L51.1302 64.294ZM25.0322 76.3686C25.0322 72.6751 27.5509 69.533 31.1574 68.7324L45.6651 65.5079L49.0852 79.1944L53.7787 76.0654L54.7191 79.8292L51.9109 93.8709H37.5484V76.6612H34.4193V93.8709H25.0322V76.3686ZM93.871 93.8709H84.4839V76.6612H81.3548V93.8709H66.9923L64.1841 79.8292L65.1245 76.0654L69.818 79.1944L73.2381 65.5079L87.7458 68.7324C91.3523 69.533 93.871 72.6751 93.871 76.3686V93.8709Z" fill="#222222"/>
<path d="M70.4033 34.4195C70.4033 35.2835 69.7027 35.984 68.8387 35.984C67.9747 35.984 67.2742 35.2835 67.2742 34.4195C67.2742 33.5555 67.9747 32.855 68.8387 32.855C69.7027 32.855 70.4033 33.5555 70.4033 34.4195Z" fill="#222222"/>
<path d="M51.629 34.4195C51.629 35.2835 50.9285 35.984 50.0645 35.984C49.2005 35.984 48.5 35.2835 48.5 34.4195C48.5 33.5555 49.2005 32.855 50.0645 32.855C50.9285 32.855 51.629 33.5555 51.629 34.4195Z" fill="#222222"/>
<path d="M6.25806 6.2583H21.9032V9.38733H6.25806V6.2583Z" fill="#222222"/>
<path d="M6.25806 12.5161H21.9032V15.6451H6.25806V12.5161Z" fill="#222222"/>
<path d="M23.4677 27.6686V21.9032H28.1613V0H0V21.9032H12.9057L23.4677 27.6686ZM3.12903 3.12903H25.0323V18.7742H20.3387V22.396L13.7033 18.7742H3.12903V3.12903Z" fill="#222222"/>
<path d="M32.8548 57.8871H7.61632L9.38709 55.2324V29.7258C9.38709 27.1384 7.28096 25.0322 4.69355 25.0322C2.10614 25.0322 0 27.1384 0 29.7258V55.2324L3.85629 61.0161H32.8548V57.8871ZM4.69355 28.1613C5.55678 28.1613 6.25806 28.8641 6.25806 29.7258V32.8548H3.12903V29.7258C3.12903 28.8641 3.83031 28.1613 4.69355 28.1613ZM4.69355 56.6304L3.12903 54.2836V35.9838H6.25806V54.2836L4.69355 56.6304Z" fill="#222222"/>
<path d="M29.7258 51.6289H32.8548V54.7579H29.7258V51.6289Z" fill="#222222"/>
<path d="M12.5161 51.6289H26.5968V54.7579H12.5161V51.6289Z" fill="#222222"/>
<path d="M12.5161 45.3711H26.5968V48.5001H12.5161V45.3711Z" fill="#222222"/>
<path d="M23.4677 39.1128H26.5968V42.2418H23.4677V39.1128Z" fill="#222222"/>
<path d="M12.5161 39.1128H20.3387V42.2418H12.5161V39.1128Z" fill="#222222"/>
</svg>
